<svg width="459" height="160" viewBox="0 0 459 160" fill="none" xmlns="http://www.w3.org/2000/svg">
<mask id="mask0_2092_457" style="mask-type:luminance" maskUnits="userSpaceOnUse" x="0" y="0" width="459" height="160">
<path d="M0 0.107422H459V159.945H0V0.107422Z" fill="white"/>
</mask>
<g mask="url(#mask0_2092_457)">
<path d="M451.607 123.618V116.353H444.331V109.087H429.768V101.822H393.356V109.087H378.782V94.5567H371.506V87.2914H364.219V80.0261H356.943V72.7607H320.531V58.2301H313.244V43.6994H305.958V36.4341H298.682V29.1688H291.395V21.9034H262.269V14.6381H254.983V7.37275H247.707V0.107422H218.57V7.37275H204.008V14.6381H167.595V21.9034H160.319V29.1688H153.032V36.4341H145.746V65.4954H138.47V72.7607H131.183V87.2914H123.907V80.0261H102.057V87.2914H94.7707V94.5567H87.4947V101.822H80.2079V116.353H65.6452V123.618H51.0824V130.883H43.7957V123.618H21.9462V130.883H7.38341V138.149H0.0966797V152.679H7.38341V159.945H444.331V152.679H451.607V138.149H458.893V123.618H451.607Z" fill="#FF999A"/>
</g>
<path d="M204.008 36.4337V14.6377H196.721V29.1684H189.445V50.9644H196.721V36.4337H204.008Z" fill="#5561D3"/>
<path d="M204.008 7.37207H218.571V14.6374H204.008V7.37207Z" fill="#5561D3"/>
<path d="M196.722 50.9639H204.008V65.4945H196.722V50.9639Z" fill="#5561D3"/>
<path d="M225.857 80.0258V72.7604H218.571V65.4951H204.008V72.7604H211.295V80.0258H218.571V87.2911H233.133V80.0258H225.857Z" fill="#5561D3"/>
<path d="M254.983 21.9033H269.546V29.1687H254.983V21.9033Z" fill="#5561D3"/>
<path d="M247.707 29.168H254.983V36.4333H247.707V29.168Z" fill="#5561D3"/>
<path d="M240.42 36.4336H247.707V58.2296H240.42V36.4336Z" fill="#5561D3"/>
<path d="M247.707 58.2295H254.983V72.7602H247.707V58.2295Z" fill="#5561D3"/>
<path d="M254.983 72.7607H262.27V80.0261H254.983V72.7607Z" fill="#5561D3"/>
<path d="M262.271 80.0254H276.833V87.2907H262.271V80.0254Z" fill="#5561D3"/>
<path d="M276.832 87.291H291.395V94.5563H276.832V87.291Z" fill="#5561D3"/>
<path d="M291.396 80.0254H305.958V87.2907H291.396V80.0254Z" fill="#5561D3"/>
<mask id="mask1_2092_457" style="mask-type:luminance" maskUnits="userSpaceOnUse" x="0" y="63" width="454" height="97">
<path d="M0 63.6328H453.746V159.944H0V63.6328Z" fill="white"/>
</mask>
<g mask="url(#mask1_2092_457)">
<path d="M437.044 138.147V145.413H422.481V138.147H407.918V130.882H393.356V123.617H386.069V109.086H371.506V116.351H342.37V123.617H305.958V116.351H284.119V109.086H262.269V101.821H254.983V94.5555H262.269V87.2901H233.133V94.5555H240.42V101.821H247.707V109.086H233.133V116.351H182.158V109.086H167.595V101.821H153.032V94.5555H138.47V80.0248H145.746V65.4941H138.47V72.7595H131.183V101.821H138.47V109.086H145.746V116.351H131.183V123.617H123.907V138.147H109.333V130.882H102.057V123.617H94.7707V116.351H87.4947V101.821H80.2079V116.351H72.9212V130.882H65.6452V138.147H58.3584V145.413H14.6701V130.882H7.38341V138.147H0.0966797V152.678H7.38341V159.943H444.331V152.678H451.607V138.147H437.044Z" fill="#5561D3"/>
</g>
<path d="M21.946 130.883H14.6699V145.413H58.3582V138.148H21.946V130.883Z" fill="#8E68E6"/>
<path d="M65.6445 116.353H72.9206V130.883H65.6445V116.353Z" fill="#8E68E6"/>
<path d="M94.7711 109.087V94.5566H87.4951V116.353H94.7711V123.618H102.058V109.087H94.7711Z" fill="#8E68E6"/>
<path d="M102.059 123.617V130.883H109.335V138.148H123.908V123.617H102.059Z" fill="#8E68E6"/>
<path d="M160.319 94.5562V87.2908H153.032V58.2295H145.746V80.0255H138.47V94.5562H153.032V101.821H167.595V94.5562H160.319Z" fill="#8E68E6"/>
<path d="M182.157 101.821H167.595V116.352H182.157V123.617H233.133V109.087H182.157V101.821Z" fill="#8E68E6"/>
<path d="M233.133 101.821H247.706V109.087H233.133V101.821Z" fill="#8E68E6"/>
<path d="M211.295 130.883H218.571V138.148H211.295V130.883Z" fill="#8E68E6"/>
<path d="M240.42 116.353H254.983V130.883H240.42V116.353Z" fill="#8E68E6"/>
<path d="M138.47 123.617H153.032V138.148H138.47V123.617Z" fill="#8E68E6"/>
<path d="M80.208 123.617H87.4947V130.883H80.208V123.617Z" fill="#8E68E6"/>
<path d="M65.6445 138.148H72.9206V145.414H65.6445V138.148Z" fill="#8E68E6"/>
<path d="M80.208 138.148H94.7708V152.679H80.208V138.148Z" fill="#8E68E6"/>
<path d="M174.881 123.617H167.595V138.148H204.007V130.883H174.881V123.617Z" fill="#8E68E6"/>
<path d="M284.118 123.617H298.681V130.883H284.118V123.617Z" fill="#8E68E6"/>
<path d="M269.546 101.822V87.291H262.27V94.5563H254.983V101.822H262.27V109.087H284.12V101.822H269.546Z" fill="#8E68E6"/>
<path d="M196.722 36.4336H204.008V50.9643H196.722V36.4336Z" fill="#8E68E6"/>
<path d="M211.295 58.2292V50.9639H204.008V65.4945H218.571V58.2292H211.295Z" fill="#8E68E6"/>
<path d="M218.569 65.4951H225.856V72.7604H218.569V65.4951Z" fill="#8E68E6"/>
<path d="M254.982 80.0261V72.7607H225.856V80.0261H233.132V87.2914H262.269V80.0261H254.982Z" fill="#8E68E6"/>
<path d="M371.505 109.087H378.781V94.5566H371.505V101.822H342.369V109.087H284.118V116.353H305.957V123.618H342.369V116.353H371.505V109.087Z" fill="#8E68E6"/>
<path d="M393.355 116.352V109.087H386.068V123.618H393.355V130.883H407.918V116.352H393.355Z" fill="#8E68E6"/>
<path d="M407.919 130.883H422.482V138.148H407.919V130.883Z" fill="#8E68E6"/>
<path d="M422.481 138.148H437.044V145.414H422.481V138.148Z" fill="#8E68E6"/>
<mask id="mask2_2092_457" style="mask-type:luminance" maskUnits="userSpaceOnUse" x="434" y="129" width="25" height="12">
<path d="M434.572 129.373H459V140.33H434.572V129.373Z" fill="white"/>
</mask>
<g mask="url(#mask2_2092_457)">
<path d="M437.044 130.882H458.893V138.147H437.044V130.882Z" fill="#8E68E6"/>
</g>
<path d="M386.07 130.883H371.507V138.148H378.783V145.413H400.632V138.148H386.07V130.883Z" fill="#8E68E6"/>
<path d="M349.657 123.617H371.507V130.883H349.657V123.617Z" fill="#8E68E6"/>
<path d="M174.883 94.556V80.0253H167.597V50.964H153.034V43.6986H160.321V29.168H153.034V36.4333H145.747V58.2293H153.034V87.2906H160.321V94.556H167.597V101.821H182.159V94.556H174.883Z" fill="#FB6BA2"/>
<path d="M182.158 101.821H233.133V109.087H182.158V101.821Z" fill="#FB6BA2"/>
<path d="M174.881 43.6989V36.4336H167.595V50.9643H174.881V43.6989Z" fill="#FB6BA2"/>
<path d="M174.882 29.168H182.158V36.4333H174.882V29.168Z" fill="#FB6BA2"/>
<path d="M233.133 94.5566H240.42V101.822H233.133V94.5566Z" fill="#FB6BA2"/>
<path d="M109.335 109.087H102.059V123.618H131.184V116.352H109.335V109.087Z" fill="#FB6BA2"/>
<path d="M29.233 123.617H21.9463V138.148H43.7958V130.883H29.233V123.617Z" fill="#FB6BA2"/>
<path d="M51.083 130.883H65.6458V138.148H51.083V130.883Z" fill="#FB6BA2"/>
<mask id="mask3_2092_457" style="mask-type:luminance" maskUnits="userSpaceOnUse" x="218" y="0" width="17" height="18">
<path d="M218.174 0.107422H234.609V17.067H218.174V0.107422Z" fill="white"/>
</mask>
<g mask="url(#mask3_2092_457)">
<path d="M225.856 7.37275H233.132V0.107422H218.569V14.6381H225.856V7.37275Z" fill="#FB6BA2"/>
</g>
<path d="M211.295 43.699V21.903H218.571V14.6377H204.008V50.9644H211.295V58.2297H218.571V43.699H211.295Z" fill="#FB6BA2"/>
<path d="M218.569 58.2295H225.856V65.4948H218.569V58.2295Z" fill="#FB6BA2"/>
<path d="M225.856 65.4951H247.706V72.7604H225.856V65.4951Z" fill="#FB6BA2"/>
<path d="M218.569 29.168H225.856V36.4333H218.569V29.168Z" fill="#FB6BA2"/>
<path d="M109.334 94.5561V87.2907H116.621V80.0254H102.058V87.2907H94.7715V109.087H102.058V94.5561H109.334Z" fill="#FB6BA2"/>
<path d="M138.47 101.821H131.184V116.352H145.746V109.087H138.47V101.821Z" fill="#FB6BA2"/>
<path d="M123.907 87.291H131.183V101.822H123.907V87.291Z" fill="#FB6BA2"/>
<path d="M247.707 36.4336H254.983V58.2296H247.707V36.4336Z" fill="#FB6BA2"/>
<path d="M254.983 58.2295H262.27V72.7602H254.983V58.2295Z" fill="#FB6BA2"/>
<path d="M262.271 72.7607H276.833V80.0261H262.271V72.7607Z" fill="#FB6BA2"/>
<path d="M276.832 80.0254H291.395V87.2907H276.832V80.0254Z" fill="#FB6BA2"/>
<path d="M356.943 94.5563H327.807V101.822H291.394V94.5563H276.832V87.291H269.545V101.822H284.118V109.087H342.369V101.822H371.506V87.291H356.943V94.5563Z" fill="#FB6BA2"/>
<path d="M291.396 72.7607H305.958V80.0261H291.396V72.7607Z" fill="#FB6BA2"/>
<path d="M305.958 65.4951H313.245V72.7604H305.958V65.4951Z" fill="#FB6BA2"/>
<path d="M400.632 109.087V101.821H393.355V116.352H407.918V109.087H400.632Z" fill="#FB6BA2"/>
<path d="M415.195 123.618V116.353H407.919V130.883H422.482V123.618H415.195Z" fill="#FB6BA2"/>
<path d="M422.481 130.883H437.044V138.148H422.481V130.883Z" fill="#FB6BA2"/>
<mask id="mask4_2092_457" style="mask-type:luminance" maskUnits="userSpaceOnUse" x="434" y="115" width="25" height="18">
<path d="M434.572 115.679H459V132.114H434.572V115.679Z" fill="white"/>
</mask>
<g mask="url(#mask4_2092_457)">
<path d="M451.607 123.619V116.354H444.331V123.619H437.044V130.884H458.893V123.619H451.607Z" fill="#FB6BA2"/>
</g>
<path d="M204.008 72.7607H211.295V80.0261H204.008V72.7607Z" fill="#FB6BA2"/>
<path d="M211.295 80.0254H218.571V87.2907H211.295V80.0254Z" fill="#FB6BA2"/>
<path d="M218.569 87.291H233.132V94.5563H218.569V87.291Z" fill="#FB6BA2"/>
<path d="M233.133 14.6377H247.706V21.903H233.133V14.6377Z" fill="#FFE14D"/>
<path d="M247.707 7.37207H254.983V14.6374H247.707V7.37207Z" fill="#FFE14D"/>
<path d="M254.983 14.6377H262.27V21.903H254.983V14.6377Z" fill="#FFE14D"/>
<path d="M276.832 21.9033H291.395V29.1687H276.832V21.9033Z" fill="#FFE14D"/>
<path d="M269.545 36.4336H284.118V43.6989H269.545V36.4336Z" fill="#FFE14D"/>
<path d="M284.118 50.9639H291.394V58.2292H284.118V50.9639Z" fill="#FFE14D"/>
<path d="M174.882 14.6377H196.721V21.903H174.882V14.6377Z" fill="#FFE14D"/>
<mask id="mask5_2092_457" style="mask-type:luminance" maskUnits="userSpaceOnUse" x="231" y="0" width="18" height="9">
<path d="M231.872 0.107422H248.307V8.84936H231.872V0.107422Z" fill="white"/>
</mask>
<g mask="url(#mask5_2092_457)">
<path d="M233.134 0.107422H247.707V7.37275H233.134V0.107422Z" fill="#FFE14D"/>
</g>
<path d="M291.396 29.168H298.682V36.4333H291.396V29.168Z" fill="#FFE14D"/>
<path d="M305.958 43.6992H313.245V50.9646H305.958V43.6992Z" fill="#FFE14D"/>
<path d="M415.195 101.821H429.769V109.087H415.195V101.821Z" fill="#FFE14D"/>
<path d="M429.769 109.087H444.331V116.352H429.769V109.087Z" fill="#FFE14D"/>
<path d="M313.245 58.2295H320.532V72.7602H313.245V58.2295Z" fill="#FFE14D"/>
<path d="M320.532 72.7607H342.371V80.0261H320.532V72.7607Z" fill="#FFE14D"/>
<path d="M349.657 80.0254H356.944V87.2907H349.657V80.0254Z" fill="#FFE14D"/>
<path d="M313.245 80.0254H320.532V87.2907H313.245V80.0254Z" fill="#FFE14D"/>
<path d="M262.271 43.6992H269.547V50.9646H262.271V43.6992Z" fill="#FFE14D"/>
</svg>
