<svg width="86" height="50" viewBox="0 0 86 50" fill="none" xmlns="http://www.w3.org/2000/svg">
<path d="M28.5714 0H57.1429V7.14286H28.5714V0ZM14.2857 14.2857V7.14286H28.5714V14.2857H14.2857ZM7.14286 21.4286V14.2857H14.2857V21.4286H7.14286ZM7.14286 28.5714V21.4286H0V28.5714H7.14286ZM14.2857 35.7143H7.14286V28.5714H14.2857V35.7143ZM28.5714 42.8571H14.2857V35.7143H28.5714V42.8571ZM57.1429 42.8571V50H28.5714V42.8571H57.1429ZM71.4286 35.7143V42.8571H57.1429V35.7143H71.4286ZM78.5714 28.5714V35.7143H71.4286V28.5714H78.5714ZM78.5714 21.4286H85.7143V28.5714H78.5714V21.4286ZM71.4286 14.2857H78.5714V21.4286H71.4286V14.2857ZM71.4286 14.2857V7.14286H57.1429V14.2857H71.4286ZM35.7143 17.8571H50V32.1429H35.7143V17.8571Z" fill="black"/>
</svg>
