<svg width="125" height="125" viewBox="0 0 125 125" fill="none" xmlns="http://www.w3.org/2000/svg">
<rect x="22.6155" y="67.8765" width="7.99583" height="7.99583" transform="rotate(44.7004 22.6155 67.8765)" fill="black"/>
<rect x="39.5771" y="84.8381" width="7.99583" height="7.99583" transform="rotate(44.7004 39.5771 84.8381)" fill="black"/>
<rect x="28.2694" y="73.5303" width="7.99583" height="7.99583" transform="rotate(44.7004 28.2694 73.5303)" fill="black"/>
<rect x="45.2311" y="90.4919" width="7.99583" height="7.99583" transform="rotate(44.7004 45.2311 90.4919)" fill="black"/>
<rect x="33.9232" y="79.1842" width="7.99583" height="7.99583" transform="rotate(44.7004 33.9232 79.1842)" fill="black"/>
<rect x="50.885" y="96.146" width="7.99583" height="7.99583" transform="rotate(44.7004 50.885 96.146)" fill="black"/>
<rect x="62.1929" y="96.146" width="7.99583" height="7.99583" transform="rotate(44.7004 62.1929 96.146)" fill="black"/>
<rect x="67.8467" y="101.8" width="7.99583" height="7.99583" transform="rotate(44.7004 67.8467 101.8)" fill="black"/>
<rect x="79.1545" y="101.8" width="7.99583" height="7.99583" transform="rotate(44.7004 79.1545 101.8)" fill="black"/>
<rect x="84.8085" y="96.146" width="7.99583" height="7.99583" transform="rotate(44.7004 84.8085 96.146)" fill="black"/>
<rect x="90.4623" y="90.4919" width="7.99583" height="7.99583" transform="rotate(44.7004 90.4623 90.4919)" fill="black"/>
<rect x="96.1162" y="84.8381" width="7.99583" height="7.99583" transform="rotate(44.7004 96.1162 84.8381)" fill="black"/>
<rect x="96.1162" y="73.5303" width="7.99583" height="7.99583" transform="rotate(44.7004 96.1162 73.5303)" fill="black"/>
<rect x="96.1162" y="62.2225" width="7.99583" height="7.99583" transform="rotate(44.7004 96.1162 62.2225)" fill="black"/>
<rect x="96.1162" y="50.9147" width="7.99583" height="7.99583" transform="rotate(44.7004 96.1162 50.9147)" fill="black"/>
<rect x="96.1162" y="39.6068" width="7.99583" height="7.99583" transform="rotate(44.7004 96.1162 39.6068)" fill="black"/>
<rect x="90.4623" y="33.953" width="7.99583" height="7.99583" transform="rotate(44.7004 90.4623 33.953)" fill="black"/>
<rect x="84.8085" y="39.6068" width="7.99583" height="7.99583" transform="rotate(44.7004 84.8085 39.6068)" fill="black"/>
<rect x="84.8085" y="50.9147" width="7.99583" height="7.99583" transform="rotate(44.7004 84.8085 50.9147)" fill="black"/>
<rect x="79.1545" y="56.5686" width="7.99583" height="7.99583" transform="rotate(44.7004 79.1545 56.5686)" fill="black"/>
<rect x="73.5006" y="50.9147" width="7.99583" height="7.99583" transform="rotate(44.7004 73.5006 50.9147)" fill="black"/>
<rect x="67.8467" y="45.2607" width="7.99583" height="7.99583" transform="rotate(44.7004 67.8467 45.2607)" fill="black"/>
<rect x="62.1927" y="39.6068" width="7.99583" height="7.99583" transform="rotate(44.7004 62.1927 39.6068)" fill="black"/>
<rect x="56.5389" y="33.953" width="7.99583" height="7.99583" transform="rotate(44.7004 56.5389 33.953)" fill="black"/>
<rect x="50.885" y="28.2991" width="7.99583" height="7.99583" transform="rotate(44.7004 50.885 28.2991)" fill="black"/>
<rect x="45.2311" y="22.6453" width="7.99583" height="7.99583" transform="rotate(44.7004 45.2311 22.6453)" fill="black"/>
<rect x="33.9232" y="22.6453" width="7.99583" height="7.99583" transform="rotate(44.7004 33.9232 22.6453)" fill="black"/>
<rect x="22.644" y="34.0649" width="7.99583" height="7.99583" transform="rotate(44.7004 22.644 34.0649)" fill="black"/>
<rect x="33.9232" y="33.953" width="7.99583" height="7.99583" transform="rotate(44.7004 33.9232 33.953)" fill="black"/>
<rect x="39.5771" y="39.6068" width="7.99583" height="7.99583" transform="rotate(44.7004 39.5771 39.6068)" fill="black"/>
<rect x="45.2311" y="45.2607" width="7.99583" height="7.99583" transform="rotate(44.7004 45.2311 45.2607)" fill="black"/>
<rect x="50.885" y="50.9147" width="7.99583" height="7.99583" transform="rotate(44.7004 50.885 50.9147)" fill="black"/>
<rect x="56.5389" y="56.5686" width="7.99583" height="7.99583" transform="rotate(44.7004 56.5389 56.5686)" fill="black"/>
<rect x="22.6155" y="45.2607" width="7.99583" height="7.99583" transform="rotate(44.7004 22.6155 45.2607)" fill="black"/>
<rect x="22.6155" y="56.5686" width="7.99583" height="7.99583" transform="rotate(44.7004 22.6155 56.5686)" fill="black"/>
<rect x="28.2694" y="50.9147" width="7.99583" height="7.99583" transform="rotate(44.7004 28.2694 50.9147)" fill="black"/>
<rect x="33.9232" y="56.5686" width="7.99583" height="7.99583" transform="rotate(44.7004 33.9232 56.5686)" fill="black"/>
<rect x="39.5771" y="62.2225" width="7.99583" height="7.99583" transform="rotate(44.7004 39.5771 62.2225)" fill="black"/>
<rect x="45.2311" y="67.8765" width="7.99583" height="7.99583" transform="rotate(44.7004 45.2311 67.8765)" fill="black"/>
</svg>
