<svg width="196" height="200" viewBox="0 0 196 200" fill="none" xmlns="http://www.w3.org/2000/svg">
<path d="M98 0L104.72 70.5572L141.388 9.90311L116.829 76.3887L176.183 37.651L125.209 86.8967L195.493 77.7479L128.2 100L195.493 122.252L125.209 113.103L176.183 162.349L116.829 123.611L141.388 190.097L104.72 129.443L98 200L91.2799 129.443L54.6116 190.097L79.1706 123.611L19.8168 162.349L70.7907 113.103L0.50721 122.252L67.8 100L0.50721 77.7479L70.7907 86.8967L19.8168 37.651L79.1706 76.3887L54.6116 9.90311L91.2799 70.5572L98 0Z" fill="#9747FF"/>
</svg>
