<svg width="200" height="200" viewBox="0 0 200 200" fill="none" xmlns="http://www.w3.org/2000/svg">
<path d="M100 0L112.092 23.6517L130.902 4.89435L135.093 31.1252L158.779 19.0983L154.659 45.3406L180.902 41.2215L168.875 64.9065L195.106 69.0983L176.348 87.9076L200 100L176.348 112.092L195.106 130.902L168.875 135.093L180.902 158.779L154.659 154.659L158.779 180.902L135.093 168.875L130.902 195.106L112.092 176.348L100 200L87.9076 176.348L69.0983 195.106L64.9065 168.875L41.2215 180.902L45.3406 154.659L19.0983 158.779L31.1252 135.093L4.89435 130.902L23.6517 112.092L0 100L23.6517 87.9076L4.89435 69.0983L31.1252 64.9065L19.0983 41.2215L45.3406 45.3406L41.2215 19.0983L64.9065 31.1252L69.0983 4.89435L87.9076 23.6517L100 0Z" fill="#9747FF"/>
</svg>
