<svg width="46" height="50" viewBox="0 0 46 50" fill="none" xmlns="http://www.w3.org/2000/svg">
<path d="M22.7273 0H27.2727V18.1818H45.4545V27.2727H40.9091V22.7273H22.7273V9.09091H18.1818V4.54545H22.7273V0ZM13.6364 13.6364V9.09091H18.1818V13.6364H13.6364ZM9.09091 18.1818V13.6364H13.6364V18.1818H9.09091ZM4.54545 22.7273V18.1818H9.09091V22.7273H4.54545ZM27.2727 40.9091V45.4545H22.7273V50H18.1818V31.8182H0V22.7273H4.54545V27.2727H22.7273V40.9091H27.2727ZM31.8182 36.3636V40.9091H27.2727V36.3636H31.8182ZM36.3636 31.8182V36.3636H31.8182V31.8182H36.3636ZM36.3636 31.8182H40.9091V27.2727H36.3636V31.8182Z" fill="black"/>
</svg>
