<svg width="50" height="50" viewBox="0 0 50 50" fill="none" xmlns="http://www.w3.org/2000/svg">
<path d="M0 0H7.14286V7.14286H0V0ZM14.2857 14.2857H7.14286V7.14286H14.2857V14.2857ZM21.4286 21.4286H14.2857V14.2857H21.4286V21.4286ZM28.5714 21.4286H21.4286V28.5714H14.2857V35.7143H7.14286V42.8571H0V50H7.14286V42.8571H14.2857V35.7143H21.4286V28.5714H28.5714V35.7143H35.7143V42.8571H42.8571V50H50V42.8571H42.8571V35.7143H35.7143V28.5714H28.5714V21.4286ZM35.7143 14.2857V21.4286H28.5714V14.2857H35.7143ZM42.8571 7.14286V14.2857H35.7143V7.14286H42.8571ZM42.8571 7.14286V0H50V7.14286H42.8571Z" fill="black"/>
</svg>
