<svg width="233" height="214" viewBox="0 0 233 214" fill="none" xmlns="http://www.w3.org/2000/svg">
<mask id="mask0_2078_5702" style="mask-type:luminance" maskUnits="userSpaceOnUse" x="0" y="0" width="233" height="214">
<path d="M0 0.260742H232.019V213.499H0V0.260742Z" fill="white"/>
</mask>
<g mask="url(#mask0_2078_5702)">
<path d="M111.372 0.268066V14.1704H120.654V0.268066H111.372ZM120.654 14.1704V32.7137H129.929V14.1704H120.654ZM129.929 32.7137V55.8912H139.212V32.7137H129.929ZM139.212 55.8912V74.4346H148.494V55.8912H139.212ZM148.494 74.4346V83.7028H222.737V92.978H232.019V74.4346H148.494ZM222.737 92.978H204.18V102.246H222.737V92.978ZM204.18 102.246H185.616V111.514H204.18V102.246ZM185.616 111.514H167.058V120.79H185.616V111.514ZM167.058 120.79H157.776V143.967H167.058V120.79ZM167.058 143.967V162.51H176.333V143.967H167.058ZM176.333 162.51V185.688H185.616V162.51H176.333ZM185.616 185.688V204.231H171.692V213.499H194.898V185.688H185.616ZM171.692 204.231V194.956H157.776V204.231H171.692ZM157.776 194.956V185.688H139.212V194.956H157.776ZM139.212 185.688V176.413H125.295V185.688H139.212ZM125.295 176.413V167.145H106.731V176.413H125.295ZM106.731 176.413H92.8078V185.688H106.731V176.413ZM92.8078 185.688H74.2504V194.956H92.8078V185.688ZM74.2504 194.956H60.3272V204.231H74.2504V194.956ZM60.3272 204.231H46.4039V185.688H37.1287V213.499H60.3272V204.231ZM46.4039 185.688H55.6861V162.51H46.4039V185.688ZM55.6861 162.51H64.9682V143.967H55.6861V162.51ZM64.9682 143.967H74.2504V120.79H64.9682V143.967ZM64.9682 120.79V111.514H46.4039V120.79H64.9682ZM46.4039 111.514V102.246H27.8465V111.514H46.4039ZM27.8465 102.246V92.978H9.28218V102.246H27.8465ZM9.28218 92.978V83.7028H83.5256V74.4346H0V92.978H9.28218ZM83.5256 74.4346H92.8078V55.8912H83.5256V74.4346ZM92.8078 55.8912H102.09V32.7137H92.8078V55.8912ZM102.09 32.7137H111.372V14.1704H102.09V32.7137Z" fill="#786FE1"/>
</g>
</svg>
