<svg width="367" height="432" viewBox="0 0 367 432" fill="none" xmlns="http://www.w3.org/2000/svg">
<path d="M173.869 350.036L185.708 382.724L169.369 388.646L157.536 355.953L173.869 350.036Z" fill="black"/>
<mask id="mask0_2077_1886" style="mask-type:luminance" maskUnits="userSpaceOnUse" x="185" y="323" width="182" height="109">
<path d="M185.364 323.286H366.828V431.755H185.364V323.286Z" fill="white"/>
</mask>
<g mask="url(#mask0_2077_1886)">
<path d="M349.078 323.525L366.823 372.562L203.453 431.755L185.708 382.723L202.041 376.801L213.875 409.494L344.573 362.135L332.739 329.442L349.078 323.525Z" fill="black"/>
</g>
<path d="M190.307 140.193L196.229 156.552L163.557 168.391L187.218 233.766L170.885 239.688L123.552 108.922L139.89 103L157.635 152.031L190.307 140.193Z" fill="black"/>
<path d="M245.25 138.792L251.167 155.136L218.479 166.979L236.229 216.011L219.896 221.927L196.229 156.552L245.25 138.792Z" fill="black"/>
<path d="M283.838 143.297L289.755 159.641L273.417 165.557L291.167 214.594L274.828 220.51L251.167 155.135L283.838 143.297Z" fill="black"/>
<path d="M328.343 164.146L363.922 262.437L347.583 268.359L312.005 170.062L328.343 164.146Z" fill="black"/>
<path d="M347.583 268.359L365.411 317.609L349.078 323.526L331.25 274.281L347.583 268.359Z" fill="black"/>
<path d="M145.703 323.266L157.536 355.953L141.198 361.875L129.37 329.188L145.703 323.266Z" fill="black"/>
<path d="M117.536 296.495L129.37 329.188L113.031 335.104L101.198 302.417L117.536 296.495Z" fill="black"/>
<path d="M95.2809 286.062L101.198 302.417L84.8486 308.344L78.9268 291.984L95.2809 286.062Z" fill="black"/>
<path d="M93.8646 231.109L99.7813 247.453L67.099 259.292L78.9271 291.984L62.5938 297.901L44.8438 248.87L93.8646 231.109Z" fill="black"/>
<path d="M90.8748 120.755L144.286 268.302L127.948 274.218L122.036 257.88L105.698 263.797L99.7811 247.453L116.12 241.531L74.5415 126.677L90.8748 120.755Z" fill="black"/>
<path d="M117.635 92.5732L123.552 108.922L90.8748 120.756L84.9634 104.417L117.635 92.5732Z" fill="black"/>
<path d="M306.088 153.724L312.005 170.062L295.666 175.984L289.755 159.64L306.088 153.724Z" fill="black"/>
<mask id="mask1_2077_1886" style="mask-type:luminance" maskUnits="userSpaceOnUse" x="58" y="0" width="42" height="73">
<path d="M58.3955 0H99.7288V72.6198H58.3955V0Z" fill="white"/>
</mask>
<g mask="url(#mask1_2077_1886)">
<path d="M92.7235 49.0573L74.9735 0.015625L58.6401 5.9375L70.4735 38.6302L76.3901 54.974L82.3068 71.3229L98.6401 65.401L92.7235 49.0573Z" fill="black"/>
</g>
<mask id="mask2_2077_1886" style="mask-type:luminance" maskUnits="userSpaceOnUse" x="0" y="103" width="72" height="42">
<path d="M0 103.286H71.7292V144.619H0V103.286Z" fill="white"/>
</mask>
<g mask="url(#mask2_2077_1886)">
<path d="M38.5885 132.089L71.2656 120.25L65.349 103.906L32.6719 115.75L16.3385 121.661L0 127.583L5.91667 143.932L22.2552 138.01L38.5885 132.089Z" fill="black"/>
</g>
<path d="M35.6615 79.5628L51.3958 86.9326L67.1354 94.3076L74.5 78.5628L58.7656 71.193L43.0313 63.818L27.2917 56.443L11.5573 49.0732L4.1875 64.818L19.9271 72.193L35.6615 79.5628Z" fill="black"/>
<path d="M197.724 55.9424L165.047 67.7757L148.714 73.6976L132.375 79.6195L138.292 95.9632L154.63 90.0466L170.964 84.1247L203.641 72.2861L197.724 55.9424Z" fill="black"/>
<path d="M137.63 2.58887L122.891 34.0785L115.526 49.8232L108.156 65.568L123.891 72.9378L131.26 57.193L138.625 41.4482L145.995 25.7087L153.365 9.95866L137.63 2.58887Z" fill="black"/>
</svg>
