<svg width="325" height="325" viewBox="0 0 325 325" fill="none" xmlns="http://www.w3.org/2000/svg">
<path d="M284.38 152.358V142.217H253.892V132.086H233.608V121.944H223.477V111.803H213.336V101.661H203.194V91.5194H193.053V81.25H182.911V50.7613H172.769V12.677H162.5V0H152.358V30.4887H142.217V60.9668H132.086V91.4555H121.944V101.597H111.803V111.739H101.661V121.88H81.25V132.022H60.9668V142.153H30.4887V152.294H0V162.5H15.2124V172.642H50.7613V182.783H81.25V192.925H91.3916V203.066H101.533V213.208H111.675V223.339H121.806V233.481H131.947V253.764H142.089V284.252H152.231V325H162.5V304.727H172.642V274.239H182.783V243.75H192.925V223.477H203.066V213.336H213.197V203.194H223.339V193.053H243.75V182.911H274.239V172.769H302.192V162.5H325V152.358H284.38ZM226.013 162.5H210.8V172.642H200.659V185.319H190.453V192.925H182.847V203.066H175.241V213.208H165.099V225.874H152.422V213.208H142.291V195.46H132.15V185.319H119.473V172.642H101.725V162.5H91.5834V152.358H111.867V142.217H122.008V132.086H132.15V121.944H142.291V111.803H152.422V91.5194H162.5V101.661H172.642V119.409H182.783V129.55H195.46V142.217H213.197V152.358H225.874V162.5H226.013Z" fill="#887BE9"/>
</svg>
