<svg width="432" height="419" viewBox="0 0 432 419" fill="none" xmlns="http://www.w3.org/2000/svg">
<mask id="mask0_2077_1123" style="mask-type:luminance" maskUnits="userSpaceOnUse" x="25" y="12" width="407" height="407">
<path d="M25.8125 12.8857H431.385V418.219H25.8125V12.8857Z" fill="white"/>
</mask>
<g mask="url(#mask0_2077_1123)">
<path d="M431.385 135.13V229.401H417.901V256.334H404.422V269.802H390.943V283.271H377.463V296.735H363.979V310.203H350.5V323.672H323.536V337.136H283.094V417.938H256.135V404.474H242.656V391.005H229.172V377.537H215.693V350.604H175.25V337.136H134.807V323.672H107.849V310.203H94.3644V296.735H80.8853V283.271H67.4061V269.802H53.9217V256.334H40.4425V229.401H26.9634V135.13H40.4425V108.198H53.9217V94.7293H67.4061V81.2606H80.8853V67.7918H94.3644V54.3283H107.849V40.8595H134.807V27.3908H175.25V13.9272H283.094V27.3908H323.536V40.8595H350.5V54.3283H363.979V67.7918H377.463V81.2606H390.943V94.7293H404.422V108.198H417.901V135.13H431.385Z" fill="black"/>
</g>
<path d="M13.4844 215.932V121.662L26.9635 94.7293L80.8854 40.8595L107.849 27.3908L148.286 13.9272H256.135L296.578 27.3908L323.536 40.8595L377.464 94.7293L390.943 121.662V215.932L377.464 242.865L323.536 296.735L296.578 310.203L256.135 323.672H242.656V391.005H229.172V377.537H215.693L202.214 364.073L188.729 337.136L148.286 323.672L107.849 310.203L80.8854 296.735L26.9635 242.865L13.4844 215.932Z" fill="white"/>
<path d="M40.4427 121.661H26.9635V94.7292H40.4427V121.661ZM26.9635 215.932V242.865H40.4427V215.932H26.9635ZM53.9219 81.2604H40.4427V94.7292H53.9219V81.2604ZM40.4427 242.865V256.333H53.9219V242.865H40.4427ZM188.729 323.672V337.135H202.214V323.672H188.729ZM202.214 337.135V364.073H215.693V337.135H202.214ZM215.693 364.073V377.536H229.172V364.073H215.693ZM229.172 377.536V391.005H242.656V377.536H229.172ZM67.4063 269.802V283.271H80.8854V269.802H67.4063ZM80.8854 283.271V296.734H107.849V283.271H80.8854ZM107.849 296.734V310.203H148.286V296.734H107.849ZM148.286 310.203V323.672H188.729V310.203H148.286ZM67.4063 67.7917H53.9219V81.2604H67.4063V67.7917ZM53.9219 256.333V269.802H67.4063V256.333H53.9219ZM80.8854 54.3281H67.4063V67.7917H80.8854V54.3281ZM107.849 40.8594H80.8854V54.3281H107.849V40.8594ZM148.286 27.3906H107.849V40.8594H148.286V27.3906ZM26.9635 189V121.661H13.4844V215.932H26.9635V189Z" fill="black"/>
<path d="M175.25 94.7292H161.771V67.7917H175.25V54.3281H229.172V67.7917H242.656V94.7292H229.172V108.198H175.25V94.7292ZM256.136 256.333H242.656V135.13H148.287V148.599H175.25V256.333H148.287V269.802H269.615V256.333H256.136Z" fill="black"/>
<mask id="mask1_2077_1123" style="mask-type:luminance" maskUnits="userSpaceOnUse" x="0" y="0" width="405" height="405">
<path d="M0 0H404.479V404.885H0V0Z" fill="white"/>
</mask>
<g mask="url(#mask1_2077_1123)">
<path d="M161.771 13.9272H148.286V0.458496H256.135V13.9272H161.771ZM134.807 27.3908H148.286V13.9272H107.849V27.3908H134.807ZM269.615 27.3908H296.578V13.9272H256.135V27.3908H269.615ZM107.849 40.8595V27.3908H80.8854V40.8595H107.849ZM310.057 40.8595H323.536V27.3908H296.578V40.8595H310.057ZM80.8854 40.8595H67.4063V54.3283H80.8854V40.8595ZM337.021 54.3283V40.8595H323.536V54.3283H337.021ZM67.4063 54.3283H53.9219V67.7918H67.4063V54.3283ZM350.5 67.7918V54.3283H337.021V67.7918H350.5ZM53.9219 67.7918H40.4427V81.2606H53.9219V67.7918ZM363.979 81.2606V67.7918H350.5V81.2606H363.979ZM40.4427 81.2606H26.9635V94.7293H40.4427V81.2606ZM377.464 94.7293V81.2606H363.979V94.7293H377.464ZM26.9635 108.198V94.7293H13.4844V121.662H26.9635V108.198ZM377.464 121.662H390.943V94.7293H377.464V121.662ZM390.943 121.662V215.932H404.422V121.662H390.943ZM13.4844 189V121.662H0V215.932H13.4844V189ZM26.9635 215.932H13.4844V242.865H26.9635V215.932ZM377.464 229.401V242.865H390.943V215.932H377.464V229.401ZM26.9635 242.865V256.334H40.4427V242.865H26.9635ZM363.979 256.334H377.464V242.865H363.979V256.334ZM40.4427 256.334V269.802H53.9219V256.334H40.4427ZM350.5 269.802H363.979V256.334H350.5V269.802ZM53.9219 269.802V283.271H67.4063V269.802H53.9219ZM337.021 283.271H350.5V269.802H337.021V283.271ZM67.4063 283.271V296.735H80.8854V283.271H67.4063ZM323.536 296.735H337.021V283.271H323.536V296.735ZM94.3646 296.735H80.8854V310.203H107.849V296.735H94.3646ZM296.578 296.735V310.203H323.536V296.735H296.578ZM134.807 310.203H107.849V323.672H148.286V310.203H134.807ZM269.615 310.203H256.135V323.672H296.578V310.203H269.615ZM175.25 323.672H148.286V337.136H188.729V323.672H175.25ZM242.656 337.136V391.005H229.172V404.474H256.135V323.672H242.656V337.136ZM202.214 337.136H188.729V364.073H202.214V337.136ZM202.214 364.073V377.537H215.693V364.073H202.214ZM215.693 377.537V391.005H229.172V377.537H215.693Z" fill="black"/>
</g>
</svg>
