<svg width="433" height="265" viewBox="0 0 433 265" fill="none" xmlns="http://www.w3.org/2000/svg">
<mask id="mask0_2077_1204" style="mask-type:luminance" maskUnits="userSpaceOnUse" x="0" y="0" width="433" height="265">
<path d="M0.614502 0H432.328V264.823H0.614502V0Z" fill="white"/>
</mask>
<g mask="url(#mask0_2077_1204)">
<path d="M0.682129 0H432.255V264.823H0.682129V0Z" fill="black"/>
</g>
<path d="M28.5256 13.9375V27.875H14.6038V13.9375H28.5256ZM56.3694 13.9375H42.4475V27.875H56.3694V13.9375ZM84.2131 13.9375H70.2913V27.875H84.2131V13.9375ZM112.057 13.9375H98.135V27.875H112.057V13.9375ZM139.901 13.9375H125.979V27.875H139.901V13.9375ZM167.744 13.9375H153.823V27.875H167.744V13.9375ZM195.588 13.9375H181.666V27.875H195.588V13.9375ZM223.432 13.9375H209.51V27.875H223.432V13.9375ZM251.276 13.9375H237.354V27.875H251.276V13.9375ZM279.119 13.9375H265.198V27.875H279.119V13.9375ZM306.963 13.9375H293.041V27.875H306.963V13.9375ZM334.802 13.9375H320.885V27.875H334.802V13.9375ZM362.645 13.9375H348.724V27.875H362.645V13.9375ZM390.489 13.9375H376.567V27.875H390.489V13.9375ZM418.333 13.9375H404.411V27.875H418.333V13.9375ZM42.4475 27.875H28.5256V41.8125H42.4475V27.875ZM70.2913 41.8125V27.875H56.3694V41.8125H70.2913ZM98.135 41.8125V27.875H84.2131V41.8125H98.135ZM125.979 41.8125V27.875H112.057V41.8125H125.979ZM153.823 41.8125V27.875H139.901V41.8125H153.823ZM181.666 41.8125V27.875H167.744V41.8125H181.666ZM209.51 41.8125V27.875H195.588V41.8125H209.51ZM237.354 41.8125V27.875H223.432V41.8125H237.354ZM265.198 41.8125V27.875H251.276V41.8125H265.198ZM293.041 41.8125V27.875H279.119V41.8125H293.041ZM320.885 41.8125V27.875H306.963V41.8125H320.885ZM348.724 41.8125V27.875H334.802V41.8125H348.724ZM376.567 41.8125V27.875H362.645V41.8125H376.567ZM390.489 27.875V41.8125H404.411V27.875H390.489ZM14.6038 41.8125V55.75H28.5256V41.8125H14.6038ZM56.3694 41.8125H42.4475V55.75H56.3694V41.8125ZM84.2131 55.75V41.8125H70.2913V55.75H84.2131ZM112.057 55.75V41.8125H98.135V55.75H112.057ZM139.901 55.75V41.8125H125.979V55.75H139.901ZM167.744 55.75V41.8125H153.823V55.75H167.744ZM195.588 55.75V41.8125H181.666V55.75H195.588ZM223.432 55.75V41.8125H209.51V55.75H223.432ZM251.276 55.75V41.8125H237.354V55.75H251.276ZM279.119 55.75V41.8125H265.198V55.75H279.119ZM306.963 55.75V41.8125H293.041V55.75H306.963ZM334.802 55.75V41.8125H320.885V55.75H334.802ZM362.645 55.75V41.8125H348.724V55.75H362.645ZM376.567 55.75H390.489V41.8125H376.567V55.75ZM418.333 55.75V41.8125H404.411V55.75H418.333ZM42.4475 55.75H28.5256V69.6875H42.4475V55.75ZM70.2913 55.75H56.3694V69.6875H70.2913V55.75ZM98.135 69.6875V55.75H84.2131V69.6875H98.135ZM125.979 69.6875V55.75H112.057V69.6875H125.979ZM153.823 69.6875V55.75H139.901V69.6875H153.823ZM181.666 69.6875V55.75H167.744V69.6875H181.666ZM209.51 69.6875V55.75H195.588V69.6875H209.51ZM237.354 69.6875V55.75H223.432V69.6875H237.354ZM265.198 69.6875V55.75H251.276V69.6875H265.198ZM293.041 69.6875V55.75H279.119V69.6875H293.041ZM320.885 69.6875V55.75H306.963V69.6875H320.885ZM348.724 69.6875V55.75H334.802V69.6875H348.724ZM362.645 69.6875H376.567V55.75H362.645V69.6875ZM390.489 69.6875H404.411V55.75H390.489V69.6875ZM14.6038 69.6875V83.6302H28.5256V69.6875H14.6038ZM56.3694 69.6875H42.4475V83.6302H56.3694V69.6875ZM84.2131 69.6875H70.2913V83.6302H84.2131V69.6875ZM112.057 83.6302V69.6875H98.135V83.6302H112.057ZM139.901 83.6302V69.6875H125.979V83.6302H139.901ZM167.744 83.6302V69.6875H153.823V83.6302H167.744ZM195.588 83.6302V69.6875H181.666V83.6302H195.588ZM223.432 83.6302V69.6875H209.51V83.6302H223.432ZM251.276 83.6302V69.6875H237.354V83.6302H251.276ZM279.119 83.6302V69.6875H265.198V83.6302H279.119ZM306.963 83.6302V69.6875H293.041V83.6302H306.963ZM334.802 83.6302V69.6875H320.885V83.6302H334.802ZM348.724 83.6302H362.645V69.6875H348.724V83.6302ZM376.567 83.6302H390.489V69.6875H376.567V83.6302ZM418.333 83.6302V69.6875H404.411V83.6302H418.333ZM42.4475 83.6302H28.5256V97.5677H42.4475V83.6302ZM70.2913 83.6302H56.3694V97.5677H70.2913V83.6302ZM98.135 83.6302H84.2131V97.5677H98.135V83.6302ZM125.979 97.5677V83.6302H112.057V97.5677H125.979ZM153.823 97.5677V83.6302H139.901V97.5677H153.823ZM181.666 97.5677V83.6302H167.744V97.5677H181.666ZM209.51 97.5677V83.6302H195.588V97.5677H209.51ZM237.354 97.5677V83.6302H223.432V97.5677H237.354ZM265.198 97.5677V83.6302H251.276V97.5677H265.198ZM293.041 97.5677V83.6302H279.119V97.5677H293.041ZM320.885 97.5677V83.6302H306.963V97.5677H320.885ZM334.802 97.5677H348.724V83.6302H334.802V97.5677ZM362.645 97.5677H376.567V83.6302H362.645V97.5677ZM390.489 97.5677H404.411V83.6302H390.489V97.5677ZM14.6038 97.5677V111.505H28.5256V97.5677H14.6038ZM56.3694 97.5677H42.4475V111.505H56.3694V97.5677ZM84.2131 97.5677H70.2913V111.505H84.2131V97.5677ZM112.057 97.5677H98.135V111.505H112.057V97.5677ZM139.901 111.505V97.5677H125.979V111.505H139.901ZM167.744 111.505V97.5677H153.823V111.505H167.744ZM195.588 111.505V97.5677H181.666V111.505H195.588ZM223.432 111.505V97.5677H209.51V111.505H223.432ZM251.276 111.505V97.5677H237.354V111.505H251.276ZM279.119 111.505V97.5677H265.198V111.505H279.119ZM306.963 111.505V97.5677H293.041V111.505H306.963ZM320.885 111.505H334.802V97.5677H320.885V111.505ZM348.724 111.505H362.645V97.5677H348.724V111.505ZM376.567 111.505H390.489V97.5677H376.567V111.505ZM418.333 111.505V97.5677H404.411V111.505H418.333ZM42.4475 111.505H28.5256V125.443H42.4475V111.505ZM70.2913 111.505H56.3694V125.443H70.2913V111.505ZM98.135 111.505H84.2131V125.443H98.135V111.505ZM125.979 111.505H112.057V125.443H125.979V111.505ZM153.823 125.443V111.505H139.901V125.443H153.823ZM181.666 125.443V111.505H167.744V125.443H181.666ZM209.51 125.443V111.505H195.588V125.443H209.51ZM237.354 125.443V111.505H223.432V125.443H237.354ZM265.198 125.443V111.505H251.276V125.443H265.198ZM293.041 125.443V111.505H279.119V125.443H293.041ZM306.963 125.443H320.885V111.505H306.963V125.443ZM334.802 125.443H348.724V111.505H334.802V125.443ZM362.645 125.443H376.567V111.505H362.645V125.443ZM390.489 125.443H404.411V111.505H390.489V125.443ZM14.6038 125.443V139.38H28.5256V125.443H14.6038ZM56.3694 125.443H42.4475V139.38H56.3694V125.443ZM84.2131 125.443H70.2913V139.38H84.2131V125.443ZM112.057 125.443H98.135V139.38H112.057V125.443ZM125.979 125.443V139.38H139.901V125.443H125.979ZM153.823 125.443V139.38H167.744V125.443H153.823ZM181.666 125.443V139.38H195.588V125.443H181.666ZM209.51 125.443V139.38H223.432V125.443H209.51ZM237.354 125.443V139.38H251.276V125.443H237.354ZM265.198 125.443V139.38H279.119V125.443H265.198ZM293.041 139.38H306.963V125.443H293.041V139.38ZM320.885 139.38H334.802V125.443H320.885V139.38ZM348.724 139.38H362.645V125.443H348.724V139.38ZM376.567 139.38H390.489V125.443H376.567V139.38ZM418.333 139.38V125.443H404.411V139.38H418.333ZM42.4475 139.38H28.5256V153.318H42.4475V139.38ZM70.2913 139.38H56.3694V153.318H70.2913V139.38ZM98.135 139.38H84.2131V153.318H98.135V139.38ZM112.057 139.38V153.318H125.979V139.38H112.057ZM139.901 139.38V153.318H153.823V139.38H139.901ZM167.744 139.38V153.318H181.666V139.38H167.744ZM195.588 139.38V153.318H209.51V139.38H195.588ZM223.432 139.38V153.318H237.354V139.38H223.432ZM251.276 139.38V153.318H265.198V139.38H251.276ZM279.119 139.38V153.318H293.041V139.38H279.119ZM306.963 153.318H320.885V139.38H306.963V153.318ZM334.802 153.318H348.724V139.38H334.802V153.318ZM362.645 153.318H376.567V139.38H362.645V153.318ZM390.489 153.318H404.411V139.38H390.489V153.318ZM14.6038 153.318V167.255H28.5256V153.318H14.6038ZM56.3694 153.318H42.4475V167.255H56.3694V153.318ZM84.2131 153.318H70.2913V167.255H84.2131V153.318ZM98.135 153.318V167.255H112.057V153.318H98.135ZM125.979 153.318V167.255H139.901V153.318H125.979ZM153.823 153.318V167.255H167.744V153.318H153.823ZM181.666 153.318V167.255H195.588V153.318H181.666ZM209.51 153.318V167.255H223.432V153.318H209.51ZM237.354 153.318V167.255H251.276V153.318H237.354ZM265.198 153.318V167.255H279.119V153.318H265.198ZM293.041 153.318V167.255H306.963V153.318H293.041ZM320.885 167.255H334.802V153.318H320.885V167.255ZM348.724 167.255H362.645V153.318H348.724V167.255ZM376.567 167.255H390.489V153.318H376.567V167.255ZM418.333 167.255V153.318H404.411V167.255H418.333ZM42.4475 167.255H28.5256V181.198H42.4475V167.255ZM70.2913 167.255H56.3694V181.198H70.2913V167.255ZM84.2131 167.255V181.198H98.135V167.255H84.2131ZM112.057 167.255V181.198H125.979V167.255H112.057ZM139.901 167.255V181.198H153.823V167.255H139.901ZM167.744 167.255V181.198H181.666V167.255H167.744ZM195.588 167.255V181.198H209.51V167.255H195.588ZM223.432 167.255V181.198H237.354V167.255H223.432ZM251.276 167.255V181.198H265.198V167.255H251.276ZM279.119 167.255V181.198H293.041V167.255H279.119ZM306.963 167.255V181.198H320.885V167.255H306.963ZM334.802 181.198H348.724V167.255H334.802V181.198ZM362.645 181.198H376.567V167.255H362.645V181.198ZM390.489 181.198H404.411V167.255H390.489V181.198ZM14.6038 181.198V195.135H28.5256V181.198H14.6038ZM56.3694 181.198H42.4475V195.135H56.3694V181.198ZM70.2913 181.198V195.135H84.2131V181.198H70.2913ZM98.135 181.198V195.135H112.057V181.198H98.135ZM125.979 181.198V195.135H139.901V181.198H125.979ZM153.823 181.198V195.135H167.744V181.198H153.823ZM181.666 181.198V195.135H195.588V181.198H181.666ZM209.51 181.198V195.135H223.432V181.198H209.51ZM237.354 181.198V195.135H251.276V181.198H237.354ZM265.198 181.198V195.135H279.119V181.198H265.198ZM293.041 181.198V195.135H306.963V181.198H293.041ZM320.885 181.198V195.135H334.802V181.198H320.885ZM348.724 195.135H362.645V181.198H348.724V195.135ZM376.567 195.135H390.489V181.198H376.567V195.135ZM418.333 195.135V181.198H404.411V195.135H418.333ZM42.4475 195.135H28.5256V209.073H42.4475V195.135ZM56.3694 195.135V209.073H70.2913V195.135H56.3694ZM84.2131 195.135V209.073H98.135V195.135H84.2131ZM112.057 195.135V209.073H125.979V195.135H112.057ZM139.901 195.135V209.073H153.823V195.135H139.901ZM167.744 195.135V209.073H181.666V195.135H167.744ZM195.588 195.135V209.073H209.51V195.135H195.588ZM223.432 195.135V209.073H237.354V195.135H223.432ZM251.276 195.135V209.073H265.198V195.135H251.276ZM279.119 195.135V209.073H293.041V195.135H279.119ZM306.963 195.135V209.073H320.885V195.135H306.963ZM334.802 195.135V209.073H348.724V195.135H334.802ZM362.645 209.073H376.567V195.135H362.645V209.073ZM390.489 209.073H404.411V195.135H390.489V209.073ZM14.6038 209.073V223.01H28.5256V209.073H14.6038ZM42.4475 209.073V223.01H56.3694V209.073H42.4475ZM70.2913 209.073V223.01H84.2131V209.073H70.2913ZM98.135 209.073V223.01H112.057V209.073H98.135ZM125.979 209.073V223.01H139.901V209.073H125.979ZM153.823 209.073V223.01H167.744V209.073H153.823ZM181.666 209.073V223.01H195.588V209.073H181.666ZM209.51 209.073V223.01H223.432V209.073H209.51ZM237.354 209.073V223.01H251.276V209.073H237.354ZM265.198 209.073V223.01H279.119V209.073H265.198ZM293.041 209.073V223.01H306.963V209.073H293.041ZM320.885 209.073V223.01H334.802V209.073H320.885ZM348.724 209.073V223.01H362.645V209.073H348.724ZM376.567 223.01H390.489V209.073H376.567V223.01ZM418.333 223.01V209.073H404.411V223.01H418.333ZM14.6038 250.885H28.5256V236.948H14.6038V250.885ZM42.4475 250.885H56.3694V236.948H42.4475V250.885ZM70.2913 250.885H84.2131V236.948H70.2913V250.885ZM98.135 250.885H112.057V236.948H98.135V250.885ZM125.979 250.885H139.901V236.948H125.979V250.885ZM153.823 250.885H167.744V236.948H153.823V250.885ZM181.666 250.885H195.588V236.948H181.666V250.885ZM209.51 250.885H223.432V236.948H209.51V250.885ZM237.354 250.885H251.276V236.948H237.354V250.885ZM265.198 250.885H279.119V236.948H265.198V250.885ZM293.041 250.885H306.963V236.948H293.041V250.885ZM320.885 250.885H334.802V236.948H320.885V250.885ZM348.724 250.885H362.645V236.948H348.724V250.885ZM376.567 250.885H390.489V236.948H376.567V250.885ZM418.333 250.885V236.948H404.411V250.885H418.333ZM28.5256 223.01V236.948H42.4475V223.01H28.5256ZM56.3694 223.01V236.948H70.2913V223.01H56.3694ZM84.2131 223.01V236.948H98.135V223.01H84.2131ZM112.057 223.01V236.948H125.979V223.01H112.057ZM139.901 223.01V236.948H153.823V223.01H139.901ZM167.744 223.01V236.948H181.666V223.01H167.744ZM195.588 223.01V236.948H209.51V223.01H195.588ZM223.432 223.01V236.948H237.354V223.01H223.432ZM251.276 223.01V236.948H265.198V223.01H251.276ZM279.119 223.01V236.948H293.041V223.01H279.119ZM306.963 223.01V236.948H320.885V223.01H306.963ZM334.802 223.01V236.948H348.724V223.01H334.802ZM362.645 223.01V236.948H376.567V223.01H362.645ZM390.489 236.948H404.411V223.01H390.489V236.948Z" fill="white"/>
<path d="M404.411 27.875V250.885H418.333V13.9375H14.6038V27.875H404.411Z" fill="white"/>
<path d="M28.5256 236.948V41.8125H42.4475V27.875H14.6038V250.885H404.411V236.948H28.5256Z" fill="black"/>
<path d="M42.4475 41.8125H70.2913V55.75H42.4475V41.8125Z" fill="black"/>
<path d="M70.2913 55.75H98.135V69.6875H70.2913V55.75Z" fill="black"/>
<path d="M98.135 69.6875H125.979V83.6302H98.135V69.6875Z" fill="black"/>
<path d="M125.979 83.6299H153.823V97.5674H125.979V83.6299Z" fill="black"/>
<path d="M153.823 97.5674H181.666V111.505H153.823V97.5674Z" fill="black"/>
<path d="M181.666 111.505H209.51V125.442H181.666V111.505Z" fill="black"/>
<mask id="mask1_2077_1204" style="mask-type:luminance" maskUnits="userSpaceOnUse" x="0" y="0" width="433" height="265">
<path d="M0.614502 0H432.328V264.823H0.614502V0Z" fill="white"/>
</mask>
<g mask="url(#mask1_2077_1204)">
<path d="M418.333 0H0.682129V264.823H432.255V0H418.333ZM418.333 250.885H14.604V27.875H42.4478V13.9375H390.489V27.875H418.333V250.885ZM42.4478 41.8125V27.875H70.2915V41.8125H42.4478ZM98.1353 41.8125V55.75H70.2915V41.8125H98.1353ZM125.979 55.75V69.6875H98.1353V55.75H125.979ZM153.823 69.6875V83.6302H125.979V69.6875H153.823ZM181.667 83.6302V97.5677H153.823V83.6302H181.667ZM209.51 97.5677V111.505H181.667V97.5677H209.51ZM223.432 97.5677H251.276V111.505H223.432V97.5677ZM251.276 83.6302H279.12V97.5677H251.276V83.6302ZM279.12 69.6875H306.963V83.6302H279.12V69.6875ZM306.963 55.75H334.802V69.6875H306.963V55.75ZM334.802 41.8125H362.646V55.75H334.802V41.8125ZM362.646 27.875H390.489V41.8125H362.646V27.875ZM209.51 111.505H223.432V125.443H209.51V111.505Z" fill="black"/>
</g>
</svg>
