<svg width="277" height="432" viewBox="0 0 277 432" fill="none" xmlns="http://www.w3.org/2000/svg">
<mask id="mask0_2077_1237" style="mask-type:luminance" maskUnits="userSpaceOnUse" x="0" y="0" width="277" height="432">
<path d="M0.328125 0H276.932V431.385H0.328125V0Z" fill="white"/>
</mask>
<g mask="url(#mask0_2077_1237)">
<path d="M276.932 122.333V167.406H270.5V199.599H264.068V212.474H257.635V225.349H251.203V238.229H244.766V244.667H238.333V251.104H231.901V257.542H225.469V263.979H219.036V270.422H212.604V276.86H206.172V283.297H193.307V289.735H186.875V328.365H193.307V334.802H199.74V341.245H206.172V354.12H212.604V360.557H219.036V366.995H212.604V373.438H206.172V386.313H212.604V392.75H219.036V399.188H212.604V405.625H206.172V418.505H199.74V424.943H193.307V431.38H83.9531V424.943H77.5208V418.505H71.0885V405.625H64.6563V399.188H58.2188V392.75H64.6563V386.313H71.0885V373.438H64.6563V366.995H58.2188V360.557H64.6563V354.12H71.0885V341.245H77.5208V334.802H83.9531V328.365H90.3854V289.735H83.9531V283.297H71.0885V276.86H64.6563V270.422H58.2188V263.979H51.7865V257.542H45.3542V251.104H38.9219V244.667H32.4896V238.229H26.0573V225.349H19.625V212.474H13.1927V199.599H6.76042V167.406H0.328125V122.333H6.76042V90.1408H13.1927V77.2658H19.625V64.3908H26.0573V51.5106H32.4896V45.0731H38.9219V38.6356H45.3542V32.1981H51.7865V25.7606H64.6563V19.3179H71.0885V12.8804H90.3854V6.44287H109.682V0.00537109H167.578V6.44287H186.875V12.8804H206.172V19.3179H212.604V25.7606H225.469V32.1981H231.901V38.6356H238.333V45.0731H244.766V51.5106H251.203V64.3908H257.635V77.2658H264.068V90.1408H270.5V122.333H276.932Z" fill="black"/>
</g>
<path d="M199.74 341.245V354.12H77.5208V341.245H83.9531V334.802H193.307V341.245H199.74ZM64.6562 360.557V366.995H212.604V360.557H64.6562ZM77.5208 373.438V386.313H199.74V373.438H77.5208ZM64.6562 392.75V399.188H212.604V392.75H64.6562ZM77.5208 405.625V418.505H83.9531V424.943H193.307V418.505H199.74V405.625H77.5208Z" fill="black"/>
<path d="M270.5 122.333V167.406H264.068V199.599H257.636V212.474H251.203V225.349H244.766V238.229H238.333V244.667H231.901V251.104H225.469V257.542H219.037V263.979H212.604V270.422H206.172V276.86H193.307V283.297H186.875V289.735H180.443V328.365H96.8178V289.735H90.3855V283.297H83.9532V276.86H71.0886V270.422H64.6563V263.979H58.2188V257.542H51.7865V251.104H45.3542V244.667H38.922V238.229H32.4897V225.349H26.0574V212.474H19.6251V199.599H13.1928V167.406H6.7605V122.333H13.1928V90.1408H19.6251V77.2658H26.0574V64.3908H32.4897V51.5106H38.922V45.0731H45.3542V38.6356H51.7865V32.1981H64.6563V25.7606H71.0886V19.3179H90.3855V12.8804H109.682V6.44287H167.578V12.8804H186.875V19.3179H206.172V25.7606H212.604V32.1981H225.469V38.6356H231.901V45.0731H238.333V51.5106H244.766V64.3908H251.203V77.2658H257.636V90.1408H264.068V122.333H270.5Z" fill="white"/>
<mask id="mask1_2077_1237" style="mask-type:luminance" maskUnits="userSpaceOnUse" x="57" y="18" width="220" height="414">
<path d="M57.6199 18.042H276.932V431.386H57.6199V18.042Z" fill="white"/>
</mask>
<g mask="url(#mask1_2077_1237)">
<path d="M64.6563 373.438H71.0885V386.313H64.6563V392.75H212.604V386.313H206.172V373.438H212.604V366.995H64.6563V373.438ZM199.74 386.313H77.5208V373.438H199.74V386.313ZM206.172 19.3179V25.7606H212.604V19.3179H206.172ZM212.604 25.7606V32.1981H225.469V25.7606H212.604ZM225.469 32.1981V38.6356H231.901V32.1981H225.469ZM231.901 38.6356V45.0731H238.333V38.6356H231.901ZM238.333 45.0731V51.5106H244.766V45.0731H238.333ZM244.766 51.5106V64.3908H251.203V51.5106H244.766ZM251.203 64.3908V77.2658H257.635V64.3908H251.203ZM257.635 77.2658V90.1408H264.068V77.2658H257.635ZM264.068 90.1408V122.333H270.5V90.1408H264.068ZM270.5 122.333V167.406H276.932V122.333H270.5ZM225.469 257.542H231.901V251.104H225.469V257.542ZM231.901 251.104H238.333V244.667H231.901V251.104ZM238.333 244.667H244.766V238.229H238.333V244.667ZM244.766 238.229H251.203V225.349H244.766V238.229ZM251.203 225.349H257.635V212.474H251.203V225.349ZM257.635 212.474H264.068V199.599H257.635V212.474ZM264.068 199.599H270.5V167.406H264.068V199.599ZM219.036 263.979H225.469V257.542H219.036V263.979ZM212.604 270.422H219.036V263.979H212.604V270.422ZM206.172 276.86H212.604V270.422H206.172V276.86ZM193.307 283.297H206.172V276.86H193.307V283.297ZM186.875 289.735H193.307V283.297H186.875V289.735ZM180.443 328.365H83.9531V334.802H193.307V328.365H186.875V289.735H180.443V328.365ZM83.9531 334.802H77.5208V341.245H83.9531V334.802ZM199.74 341.245V334.802H193.307V341.245H199.74ZM77.5208 354.12V341.245H71.0885V354.12H64.6563V360.557H212.604V354.12H206.172V341.245H199.74V354.12H77.5208ZM219.036 366.995V360.557H212.604V366.995H219.036ZM58.2188 360.557V366.995H64.6563V360.557H58.2188ZM64.6563 405.625H71.0885V418.505H77.5208V405.625H199.74V418.505H206.172V405.625H212.604V399.188H64.6563V405.625ZM219.036 399.188V392.75H212.604V399.188H219.036ZM58.2188 392.75V399.188H64.6563V392.75H58.2188ZM83.9531 431.38H193.307V424.943H83.9531V431.38ZM77.5208 418.505V424.943H83.9531V418.505H77.5208ZM193.307 424.943H199.74V418.505H193.307V424.943Z" fill="black"/>
</g>
<mask id="mask2_2077_1237" style="mask-type:luminance" maskUnits="userSpaceOnUse" x="0" y="0" width="271" height="329">
<path d="M0.328125 0H270.953V328.708H0.328125V0Z" fill="white"/>
</mask>
<g mask="url(#mask2_2077_1237)">
<path d="M167.578 6.44287H109.682V0.00537109H167.578V6.44287ZM90.3854 12.8804H109.682V6.44287H90.3854V12.8804ZM71.0885 19.3179H90.3854V12.8804H71.0885V19.3179ZM64.6563 25.7606H71.0885V19.3179H64.6563V25.7606ZM51.7865 32.1981H64.6563V25.7606H51.7865V32.1981ZM45.3542 38.6356H51.7865V32.1981H45.3542V38.6356ZM38.9219 45.0731H45.3542V38.6356H38.9219V45.0731ZM32.4896 51.5106H38.9219V45.0731H32.4896V51.5106ZM26.0573 64.3908H32.4896V51.5106H26.0573V64.3908ZM19.625 77.2658H26.0573V64.3908H19.625V77.2658ZM13.1927 90.1408H19.625V77.2658H13.1927V90.1408ZM6.76042 122.333H13.1927V90.1408H6.76042V122.333ZM0.328125 167.406H6.76042V122.333H0.328125V167.406ZM51.7865 257.542V251.104H45.3542V257.542H51.7865ZM45.3542 251.104V244.667H38.9219V251.104H45.3542ZM38.9219 244.667V238.229H32.4896V244.667H38.9219ZM32.4896 238.229V225.349H26.0573V238.229H32.4896ZM26.0573 225.349V212.474H19.625V225.349H26.0573ZM19.625 212.474V199.599H13.1927V212.474H19.625ZM13.1927 199.599V167.406H6.76042V199.599H13.1927ZM58.2188 263.979V257.542H51.7865V263.979H58.2188ZM64.6563 270.422V263.979H58.2188V270.422H64.6563ZM71.0885 276.86V270.422H64.6563V276.86H71.0885ZM83.9531 283.297V276.86H71.0885V283.297H83.9531ZM90.3854 289.735V283.297H83.9531V289.735H90.3854ZM96.8177 328.365V289.735H90.3854V328.365H96.8177ZM186.875 12.8804V6.44287H167.578V12.8804H186.875ZM206.172 19.3179V12.8804H186.875V19.3179H206.172ZM180.443 328.365V321.927H174.01V328.365H180.443ZM180.443 315.49V309.052H174.01V315.49H180.443ZM180.443 302.61V296.172H174.01V302.61H180.443ZM174.01 289.735H180.443V283.297H174.01V289.735ZM167.578 321.927H174.01V315.49H167.578V321.927ZM167.578 309.052H174.01V302.61H167.578V309.052ZM167.578 296.172H174.01V289.735H167.578V296.172ZM174.01 276.86H167.578V283.297H174.01V276.86ZM180.443 283.297H186.875V276.86H180.443V283.297ZM174.01 276.86H180.443V270.422H174.01V276.86ZM186.875 276.86H193.307V270.422H186.875V276.86ZM199.74 276.86H206.172V270.422H199.74V276.86ZM174.01 263.979H167.578V270.422H174.01V263.979ZM161.146 328.365H167.578V321.927H161.146V328.365ZM161.146 309.052V315.49H167.578V309.052H161.146ZM161.146 296.172V302.61H167.578V296.172H161.146ZM161.146 283.297V289.735H167.578V283.297H161.146ZM161.146 270.422V276.86H167.578V270.422H161.146ZM180.443 270.422H186.875V263.979H180.443V270.422ZM199.74 251.104H193.307V257.542H199.74V251.104ZM206.172 244.667H199.74V251.104H206.172V244.667ZM186.875 257.542V263.979H193.307V257.542H186.875ZM212.604 238.229H206.172V244.667H212.604V238.229ZM225.469 225.349H219.036V231.787H225.469V225.349ZM225.469 225.349H231.901V218.912H225.469V225.349ZM219.036 231.787H212.604V238.229H219.036V231.787ZM231.901 218.912H238.333V212.474H231.901V218.912ZM244.766 206.037H251.203V199.599H244.766V206.037ZM251.203 199.599H257.635V193.156H251.203V199.599ZM238.333 212.474H244.766V206.037H238.333V212.474ZM264.068 193.156V186.719H257.635V193.156H264.068ZM193.307 263.979V270.422H199.74V263.979H193.307ZM199.74 263.979H206.172V257.542H199.74V263.979ZM206.172 257.542H212.604V251.104H206.172V257.542ZM212.604 251.104H219.036V244.667H212.604V251.104ZM219.036 244.667H225.469V238.229H219.036V244.667ZM225.469 238.229H231.901V231.787H225.469V238.229ZM231.901 231.787H238.333V225.349H231.901V231.787ZM238.333 225.349H244.766V218.912H238.333V225.349ZM244.766 218.912H251.203V212.474H244.766V218.912ZM206.172 270.422H212.604V263.979H206.172V270.422ZM212.604 263.979H219.036V257.542H212.604V263.979ZM219.036 257.542H225.469V251.104H219.036V257.542ZM225.469 251.104H231.901V244.667H225.469V251.104ZM231.901 244.667H238.333V238.229H231.901V244.667ZM244.766 238.229V231.787H238.333V238.229H244.766ZM180.443 257.542H174.01V263.979H180.443V257.542ZM186.875 251.104H180.443V257.542H186.875V251.104ZM193.307 244.667H186.875V251.104H193.307V244.667ZM199.74 238.229H193.307V244.667H199.74V238.229ZM206.172 231.787H199.74V238.229H206.172V231.787ZM212.604 225.349H206.172V231.787H212.604V225.349ZM219.036 218.912H212.604V225.349H219.036V218.912ZM225.469 212.474H219.036V218.912H225.469V212.474ZM231.901 206.037H225.469V212.474H231.901V206.037ZM238.333 199.599H231.901V206.037H238.333V199.599ZM238.333 180.281V186.719H244.766V180.281H238.333ZM238.333 167.406V173.844H244.766V167.406H238.333ZM251.203 160.964H244.766V167.406H251.203V160.964ZM251.203 148.089H244.766V154.526H251.203V148.089ZM244.766 193.156H238.333V199.599H244.766V193.156ZM251.203 186.719H244.766V193.156H251.203V186.719ZM251.203 186.719H257.635V180.281H251.203V186.719ZM251.203 173.844H244.766V180.281H251.203V173.844ZM264.068 180.281V173.844H257.635V180.281H264.068ZM251.203 173.844H257.635V167.406H251.203V173.844ZM257.635 167.406H264.068V160.964H257.635V167.406ZM251.203 160.964H257.635V154.526H251.203V160.964ZM270.5 160.964V154.526H264.068V160.964H270.5ZM257.635 154.526H264.068V148.089H257.635V154.526ZM251.203 135.214H244.766V141.651H251.203V135.214ZM251.203 148.089H257.635V141.651H251.203V148.089ZM270.5 148.089V141.651H264.068V148.089H270.5ZM257.635 135.214V141.651H264.068V135.214H257.635ZM251.203 122.333H244.766V128.771H251.203V122.333ZM251.203 128.771V135.214H257.635V128.771H251.203ZM270.5 135.214V128.771H264.068V135.214H270.5ZM264.068 128.771V122.333H257.635V128.771H264.068ZM251.203 109.458H244.766V115.896H251.203V109.458ZM251.203 122.333H257.635V115.896H251.203V122.333ZM264.068 115.896V109.458H257.635V115.896H264.068ZM251.203 96.5835H244.766V103.021H251.203V96.5835ZM251.203 109.458H257.635V103.021H251.203V109.458ZM264.068 103.021V96.5835H257.635V103.021H264.068ZM244.766 90.1408H251.203V83.7033H244.766V90.1408ZM257.635 96.5835V90.1408H251.203V96.5835H257.635ZM257.635 212.474V206.037H251.203V212.474H257.635ZM257.635 83.7033V77.2658H251.203V83.7033H257.635ZM238.333 90.1408V96.5835H244.766V90.1408H238.333ZM231.901 83.7033V90.1408H238.333V83.7033H231.901ZM225.469 77.2658V83.7033H231.901V77.2658H225.469ZM219.036 70.8283V77.2658H225.469V70.8283H219.036ZM212.604 64.3908V70.8283H219.036V64.3908H212.604ZM206.172 57.9481V64.3908H212.604V57.9481H206.172ZM199.74 51.5106V57.9481H206.172V51.5106H199.74ZM193.307 45.0731V51.5106H199.74V45.0731H193.307ZM186.875 38.6356V45.0731H193.307V38.6356H186.875ZM186.875 25.7606V32.1981H193.307V25.7606H186.875ZM199.74 32.1981H193.307V38.6356H199.74V32.1981ZM206.172 25.7606H199.74V32.1981H206.172V25.7606ZM199.74 38.6356V45.0731H206.172V38.6356H199.74ZM212.604 38.6356V32.1981H206.172V38.6356H212.604ZM206.172 45.0731V51.5106H212.604V45.0731H206.172ZM219.036 45.0731V38.6356H212.604V45.0731H219.036ZM225.469 32.1981H219.036V38.6356H225.469V32.1981ZM212.604 51.5106V57.9481H219.036V51.5106H212.604ZM225.469 51.5106V45.0731H219.036V51.5106H225.469ZM231.901 45.0731V38.6356H225.469V45.0731H231.901ZM219.036 57.9481V64.3908H225.469V57.9481H219.036ZM231.901 57.9481V51.5106H225.469V57.9481H231.901ZM238.333 51.5106V45.0731H231.901V51.5106H238.333ZM225.469 64.3908V70.8283H231.901V64.3908H225.469ZM231.901 64.3908H238.333V57.9481H231.901V64.3908ZM244.766 57.9481V51.5106H238.333V57.9481H244.766ZM231.901 70.8283V77.2658H238.333V70.8283H231.901ZM244.766 70.8283V64.3908H238.333V70.8283H244.766ZM238.333 77.2658V83.7033H244.766V77.2658H238.333ZM251.203 77.2658V70.8283H244.766V77.2658H251.203ZM238.333 154.526V160.964H244.766V154.526H238.333ZM238.333 141.651V148.089H244.766V141.651H238.333ZM238.333 128.771V135.214H244.766V128.771H238.333ZM238.333 115.896V122.333H244.766V115.896H238.333ZM238.333 103.021V109.458H244.766V103.021H238.333Z" fill="black"/>
</g>
<path d="M96.8178 328.365V289.735H103.25V328.365H96.8178ZM96.8178 289.735V283.297H90.3855V289.735H96.8178ZM90.3855 283.297V276.86H83.9532V283.297H90.3855ZM83.9532 276.86V270.422H71.0886V276.86H83.9532ZM71.0886 270.422V263.979H64.6563V270.422H71.0886ZM64.6563 263.979V257.542H58.2188V263.979H64.6563ZM58.2188 257.542V251.104H51.7865V257.542H58.2188ZM51.7865 251.104V244.667H45.3542V251.104H51.7865ZM45.3542 244.667V238.229H38.922V244.667H45.3542ZM38.922 238.229V225.349H32.4897V238.229H38.922ZM32.4897 225.349V212.474H26.0574V225.349H32.4897ZM26.0574 212.474V199.599H19.6251V212.474H26.0574ZM19.6251 199.599V167.406H13.1928V199.599H19.6251ZM13.1928 122.333H19.6251V90.1408H13.1928V122.333ZM6.7605 167.406H13.1928V122.333H6.7605V167.406ZM19.6251 90.1408H26.0574V77.2658H19.6251V90.1408ZM26.0574 77.2658H32.4897V64.3908H26.0574V77.2658ZM32.4897 64.3908H38.922V51.5106H32.4897V64.3908ZM38.922 51.5106H45.3542V45.0731H38.922V51.5106ZM45.3542 45.0731H51.7865V38.6356H45.3542V45.0731ZM51.7865 38.6356H64.6563V32.1981H51.7865V38.6356ZM64.6563 32.1981H71.0886V25.7606H64.6563V32.1981ZM71.0886 25.7606H90.3855V19.3179H71.0886V25.7606ZM90.3855 19.3179H109.682V12.8804H90.3855V19.3179ZM109.682 6.44287V12.8804H167.578V6.44287H109.682ZM167.578 12.8804V19.3179H186.875V12.8804H167.578ZM186.875 25.7606H206.172V19.3179H186.875V25.7606ZM83.9532 341.245H167.578V334.802H83.9532V341.245ZM77.5209 354.12H83.9532V341.245H77.5209V354.12ZM64.6563 366.995H96.8178V360.557H64.6563V366.995ZM96.8178 392.75H64.6563V399.188H96.8178V392.75ZM77.5209 405.625V418.505H83.9532V405.625H77.5209ZM83.9532 424.943H109.682V418.505H83.9532V424.943ZM116.115 424.943H122.547V418.505H116.115V424.943ZM128.979 424.943H135.412V418.505H128.979V424.943ZM135.412 328.365V218.912H128.979V328.365H135.412ZM122.547 180.281V218.912H128.979V180.281H122.547ZM116.115 167.406V180.281H122.547V167.406H116.115ZM122.547 160.964V135.214H116.115V160.964H122.547ZM116.115 135.214V115.896H109.682V135.214H116.115ZM109.682 115.896V109.458H103.25V115.896H109.682ZM103.25 109.458V103.021H96.8178V109.458H103.25ZM90.3855 96.5835V103.021H96.8178V96.5835H90.3855ZM64.6563 109.458H51.7865V115.896H64.6563V109.458ZM45.3542 115.896V148.089H51.7865V115.896H45.3542ZM51.7865 148.089V154.526H64.6563V148.089H51.7865ZM109.682 160.964V154.526H64.6563V160.964H109.682ZM71.0886 103.021H64.6563V109.458H71.0886V103.021ZM193.307 103.021H186.875V109.458H193.307V103.021ZM186.875 109.458H180.443V115.896H186.875V109.458ZM180.443 115.896H174.011V135.214H180.443V115.896ZM174.011 135.214H167.578V160.964H174.011V135.214ZM167.578 180.281H174.011V167.406H167.578V180.281ZM161.146 218.912H167.578V180.281H161.146V218.912ZM154.714 328.365H161.146V218.912H154.714V328.365ZM212.604 167.406H225.469V160.964H212.604V167.406ZM225.469 160.964H231.901V154.526H225.469V160.964ZM231.901 154.526H238.333V148.089H231.901V154.526ZM231.901 109.458V115.896H238.333V109.458H231.901ZM225.469 103.021V109.458H231.901V103.021H225.469ZM212.604 96.5835V103.021H225.469V96.5835H212.604ZM83.9532 373.438H77.5209V386.313H83.9532V379.875H90.3855V373.438H83.9532ZM96.8178 373.438V379.875H103.25V373.438H96.8178ZM109.682 373.438V379.875H116.115V373.438H109.682ZM122.547 373.438V379.875H128.979V373.438H122.547ZM135.412 373.438V379.875H141.844V373.438H135.412ZM148.276 373.438V379.875H154.714V373.438H148.276ZM161.146 373.438V379.875H167.578V373.438H161.146ZM174.011 373.438V379.875H180.443V373.438H174.011ZM186.875 373.438V379.875H193.307V373.438H186.875ZM90.3855 386.313H96.8178V379.875H90.3855V386.313ZM103.25 386.313H109.682V379.875H103.25V386.313ZM116.115 386.313H122.547V379.875H116.115V386.313ZM128.979 386.313H135.412V379.875H128.979V386.313ZM141.844 386.313H148.276V379.875H141.844V386.313ZM154.714 386.313H161.146V379.875H154.714V386.313ZM167.578 386.313H174.011V379.875H167.578V386.313ZM180.443 386.313H186.875V379.875H180.443V386.313ZM193.307 386.313H199.74V379.875H193.307V386.313Z" fill="white"/>
<path d="M122.547 328.364V218.911H128.979V328.364H122.547ZM122.547 218.911V180.281H116.115V218.911H122.547ZM109.682 135.213V115.896H103.25V135.213H109.682ZM103.25 115.896V109.458H96.8177V115.896H103.25ZM96.8177 109.458V103.021H90.3854V109.458H96.8177ZM90.3854 96.583H64.6563V103.021H90.3854V96.583ZM64.6563 103.021H51.7865V109.458H64.6563V103.021ZM51.7865 109.458H45.3542V115.896H51.7865V109.458ZM38.9219 115.896V148.088H45.3542V115.896H38.9219ZM45.3542 148.088V154.526H51.7865V148.088H45.3542ZM51.7865 154.526V160.963H64.6563V154.526H51.7865ZM148.276 328.364H154.714V218.911H148.276V328.364ZM154.714 218.911H161.146V180.281H154.714V218.911ZM167.578 135.213H161.146V160.963H116.115V135.213H109.682V160.963H64.6563V167.406H109.682V180.281H116.115V167.406H161.146V180.281H167.578V167.406H212.604V160.963H167.578V135.213ZM174.01 115.896H167.578V135.213H174.01V115.896ZM180.443 109.458H174.01V115.896H180.443V109.458ZM186.875 103.021H180.443V109.458H186.875V103.021ZM212.604 96.583H186.875V103.021H212.604V96.583ZM225.469 109.458V103.021H212.604V109.458H225.469ZM231.901 115.896V109.458H225.469V115.896H231.901ZM231.901 115.896V148.088H238.333V115.896H231.901ZM225.469 154.526H231.901V148.088H225.469V154.526ZM212.604 160.963H225.469V154.526H212.604V160.963Z" fill="black"/>
</svg>
