<svg width="418" height="432" viewBox="0 0 418 432" fill="none" xmlns="http://www.w3.org/2000/svg">
<mask id="mask0_2077_1168" style="mask-type:luminance" maskUnits="userSpaceOnUse" x="0" y="0" width="418" height="432">
<path d="M0.171875 0H417.896V431.719H0.171875V0Z" fill="white"/>
</mask>
<g mask="url(#mask0_2077_1168)">
<path d="M403.974 41.8646V27.9479H390.047V14.026H362.198V0.109375H334.349V14.026H348.276V27.9479H334.349V14.026H320.427V0.109375H292.578V14.026H306.505V27.9479H292.578V14.026H278.656V0.109375H250.807V14.026H264.729V27.9479H250.807V14.026H236.88V0.109375H209.036V14.026H222.958V27.9479H209.036V14.026H195.109V0.109375H167.26V14.026H181.188V27.9479H167.26V14.026H153.339V0.109375H125.49V14.026H139.411V27.9479H125.49V14.026H111.563V27.9479H97.6406V55.7865H83.7188V83.625H69.7917V111.464H55.8698V139.302H41.9427V167.141H28.0208V194.979H14.0938V222.818H0.171875V264.578H14.0938V278.495H111.563V389.854H125.49V403.771H139.411V417.693H153.339V431.609H390.047V417.693H403.974V403.771H417.896V41.8646H403.974Z" fill="black"/>
</g>
<path d="M403.974 41.8649V403.771L390.047 417.693H153.339L125.49 389.855V278.495H264.729V264.578H14.0938V222.818L111.563 27.9482H376.125V41.8649H403.974Z" fill="white"/>
<path d="M28.0208 222.818V236.74H14.0938V222.818H28.0208ZM41.9427 222.818V236.74H55.8698V222.818H41.9427ZM69.7917 222.818V236.74H83.7188V222.818H69.7917ZM97.6406 222.818V236.74H111.563V222.818H97.6406ZM125.49 222.818V236.74H139.411V222.818H125.49ZM153.339 222.818V236.74H167.26V222.818H153.339ZM181.188 222.818V236.74H195.109V222.818H181.188ZM209.036 222.818V236.74H222.958V222.818H209.036ZM236.88 236.74H250.807V222.818H236.88V236.74ZM28.0208 236.74V250.657H41.9427V236.74H28.0208ZM55.8698 236.74V250.657H69.7917V236.74H55.8698ZM83.7188 236.74V250.657H97.6406V236.74H83.7188ZM111.563 236.74V250.657H125.49V236.74H111.563ZM139.411 236.74V250.657H153.339V236.74H139.411ZM167.26 236.74V250.657H181.188V236.74H167.26ZM195.109 236.74V250.657H209.036V236.74H195.109ZM222.958 236.74V250.657H236.88V236.74H222.958ZM250.807 250.657H264.729V236.74H250.807V250.657ZM14.0938 264.578H28.0208V250.657H14.0938V264.578ZM41.9427 264.578H55.8698V250.657H41.9427V264.578ZM69.7917 264.578H83.7188V250.657H69.7917V264.578ZM97.6406 264.578H111.563V250.657H97.6406V264.578ZM125.49 264.578H139.411V250.657H125.49V264.578ZM153.339 264.578H167.26V250.657H153.339V264.578ZM181.188 264.578H195.109V250.657H181.188V264.578ZM209.036 264.578H222.958V250.657H209.036V264.578ZM236.88 264.578H250.807V250.657H236.88V264.578ZM69.7917 181.063H55.8698V194.979H69.7917V181.063ZM97.6406 181.063H83.7188V194.979H97.6406V181.063ZM125.49 181.063H111.563V194.979H125.49V181.063ZM139.411 181.063V194.979H153.339V181.063H139.411ZM167.26 181.063V194.979H181.188V181.063H167.26ZM195.109 194.979H209.036V181.063H195.109V194.979ZM222.958 194.979H236.88V181.063H222.958V194.979ZM250.807 194.979H264.729V181.063H250.807V194.979ZM55.8698 194.979H41.9427V208.901H55.8698V194.979ZM41.9427 208.901H28.0208V222.818H41.9427V208.901ZM83.7188 194.979H69.7917V208.901H83.7188V194.979ZM97.6406 194.979V208.901H111.563V194.979H97.6406ZM125.49 194.979V208.901H139.411V194.979H125.49ZM153.339 194.979V208.901H167.26V194.979H153.339ZM181.188 194.979V208.901H195.109V194.979H181.188ZM209.036 208.901H222.958V194.979H209.036V208.901ZM236.88 208.901H250.807V194.979H236.88V208.901ZM69.7917 208.901H55.8698V222.818H69.7917V208.901ZM83.7188 208.901V222.818H97.6406V208.901H83.7188ZM111.563 208.901V222.818H125.49V208.901H111.563ZM139.411 208.901V222.818H153.339V208.901H139.411ZM167.26 208.901V222.818H181.188V208.901H167.26ZM195.109 208.901V222.818H209.036V208.901H195.109ZM222.958 222.818H236.88V208.901H222.958V222.818ZM83.7188 139.302H69.7917V153.224H83.7188V139.302ZM111.563 139.302H97.6406V153.224H111.563V139.302ZM139.411 139.302H125.49V153.224H139.411V139.302ZM167.26 139.302H153.339V153.224H167.26V139.302ZM181.188 153.224H195.109V139.302H181.188V153.224ZM209.036 153.224H222.958V139.302H209.036V153.224ZM236.88 153.224H250.807V139.302H236.88V153.224ZM264.729 153.224H278.656V139.302H264.729V153.224ZM69.7917 153.224H55.8698V167.141H69.7917V153.224ZM97.6406 153.224H83.7188V167.141H97.6406V153.224ZM125.49 153.224H111.563V167.141H125.49V153.224ZM153.339 153.224H139.411V167.141H153.339V153.224ZM181.188 153.224H167.26V167.141H181.188V153.224ZM195.109 167.141H209.036V153.224H195.109V167.141ZM222.958 167.141H236.88V153.224H222.958V167.141ZM250.807 167.141H264.729V153.224H250.807V167.141ZM83.7188 167.141H69.7917V181.063H83.7188V167.141ZM111.563 167.141H97.6406V181.063H111.563V167.141ZM139.411 167.141H125.49V181.063H139.411V167.141ZM153.339 167.141V181.063H167.26V167.141H153.339ZM181.188 181.063H195.109V167.141H181.188V181.063ZM209.036 181.063H222.958V167.141H209.036V181.063ZM236.88 181.063H250.807V167.141H236.88V181.063ZM264.729 181.063H278.656V167.141H264.729V181.063ZM97.6406 97.5472H83.7188V111.464H97.6406V97.5472ZM125.49 97.5472H111.563V111.464H125.49V97.5472ZM153.339 97.5472H139.411V111.464H153.339V97.5472ZM181.188 111.464V97.5472H167.26V111.464H181.188ZM209.036 111.464V97.5472H195.109V111.464H209.036ZM236.88 111.464V97.5472H222.958V111.464H236.88ZM250.807 111.464H264.729V97.5472H250.807V111.464ZM278.656 111.464H292.578V97.5472H278.656V111.464ZM69.7917 111.464V125.386H83.7188V111.464H69.7917ZM111.563 111.464H97.6406V125.386H111.563V111.464ZM139.411 111.464H125.49V125.386H139.411V111.464ZM167.26 111.464H153.339V125.386H167.26V111.464ZM195.109 125.386V111.464H181.188V125.386H195.109ZM222.958 125.386V111.464H209.036V125.386H222.958ZM236.88 125.386H250.807V111.464H236.88V125.386ZM264.729 125.386H278.656V111.464H264.729V125.386ZM97.6406 125.386H83.7188V139.302H97.6406V125.386ZM125.49 125.386H111.563V139.302H125.49V125.386ZM153.339 125.386H139.411V139.302H153.339V125.386ZM181.188 125.386H167.26V139.302H181.188V125.386ZM195.109 139.302H209.036V125.386H195.109V139.302ZM222.958 139.302H236.88V125.386H222.958V139.302ZM250.807 139.302H264.729V125.386H250.807V139.302ZM278.656 139.302H292.578V125.386H278.656V139.302ZM97.6406 55.7868V69.7035H111.563V55.7868H97.6406ZM139.411 69.7035V55.7868H125.49V69.7035H139.411ZM167.26 55.7868H153.339V69.7035H167.26V55.7868ZM195.109 69.7035V55.7868H181.188V69.7035H195.109ZM222.958 69.7035V55.7868H209.036V69.7035H222.958ZM250.807 55.7868H236.88V69.7035H250.807V55.7868ZM250.807 27.9482H236.88V41.8649H250.807V27.9482ZM278.656 69.7035V55.7868H264.729V69.7035H278.656ZM306.505 69.7035V55.7868H292.578V69.7035H306.505ZM125.49 41.8649H111.563V55.7868H125.49V41.8649ZM153.339 41.8649H139.411V55.7868H153.339V41.8649ZM167.26 27.9482H153.339V41.8649H167.26V27.9482ZM181.188 55.7868V41.8649H167.26V55.7868H181.188ZM209.036 55.7868V41.8649H195.109V55.7868H209.036ZM195.109 27.9482H181.188V41.8649H195.109V27.9482ZM236.88 41.8649H222.958V55.7868H236.88V41.8649ZM264.729 55.7868V41.8649H250.807V55.7868H264.729ZM292.578 55.7868V41.8649H278.656V55.7868H292.578ZM320.427 41.8649H306.505V55.7868H320.427V41.8649ZM306.505 83.6253H320.427V69.7035H306.505V83.6253ZM320.427 69.7035H334.349V55.7868H320.427V69.7035ZM320.427 97.5472H334.349V83.6253H320.427V97.5472ZM334.349 83.6253H348.276V69.7035H334.349V83.6253ZM362.198 69.7035V55.7868H348.276V69.7035H362.198ZM362.198 27.9482H348.276V41.8649H362.198V27.9482ZM334.349 27.9482H320.427V41.8649H334.349V27.9482ZM334.349 41.8649V55.7868H348.276V41.8649H334.349ZM278.656 27.9482H264.729V41.8649H278.656V27.9482ZM41.9427 167.141V181.063H55.8698V167.141H41.9427ZM125.49 69.7035H111.563V83.6253H125.49V69.7035ZM153.339 83.6253V69.7035H139.411V83.6253H153.339ZM181.188 69.7035H167.26V83.6253H181.188V69.7035ZM209.036 83.6253V69.7035H195.109V83.6253H209.036ZM236.88 83.6253V69.7035H222.958V83.6253H236.88ZM264.729 69.7035H250.807V83.6253H264.729V69.7035ZM292.578 83.6253V69.7035H278.656V83.6253H292.578ZM111.563 83.6253H97.6406V97.5472H111.563V83.6253ZM139.411 83.6253H125.49V97.5472H139.411V83.6253ZM167.26 97.5472V83.6253H153.339V97.5472H167.26ZM195.109 97.5472V83.6253H181.188V97.5472H195.109ZM222.958 97.5472V83.6253H209.036V97.5472H222.958ZM250.807 97.5472V83.6253H236.88V97.5472H250.807ZM278.656 97.5472V83.6253H264.729V97.5472H278.656ZM292.578 97.5472H306.505V83.6253H292.578V97.5472ZM292.578 125.386H306.505V111.464H292.578V125.386ZM306.505 111.464H320.427V97.5472H306.505V111.464ZM334.349 125.386V111.464H320.427V125.386H334.349ZM292.578 153.224H306.505V139.302H292.578V153.224ZM278.656 167.141H292.578V153.224H278.656V167.141ZM306.505 181.063V167.141H292.578V181.063H306.505ZM250.807 222.818H264.729V208.901H250.807V222.818ZM278.656 194.979H292.578V181.063H278.656V194.979ZM264.729 208.901H278.656V194.979H264.729V208.901ZM306.505 139.302H320.427V125.386H306.505V139.302ZM278.656 236.74V222.818H264.729V236.74H278.656Z" fill="black"/>
<path d="M403.974 41.8643V403.771H390.047V417.692H153.338V403.771H376.125V389.854H390.047V41.8643H403.974ZM125.489 375.932V389.854H139.411V375.932H125.489ZM139.411 389.854V403.771H153.338V389.854H139.411ZM348.276 334.177H153.338V348.093H348.276V334.177ZM348.276 292.416H153.338V306.338H348.276V292.416ZM348.276 250.656H278.656V264.578H348.276V250.656ZM348.276 208.901H292.578V222.817H348.276V208.901ZM348.276 167.14H320.427V181.062H348.276V167.14ZM348.276 125.385H334.349V139.302H348.276V125.385Z" fill="black"/>
<path d="M348.276 97.5469H362.198V139.302H348.276V97.5469Z" fill="black"/>
<path d="M334.349 139.302H348.276V181.062H334.349V139.302Z" fill="black"/>
<mask id="mask1_2077_1168" style="mask-type:luminance" maskUnits="userSpaceOnUse" x="0" y="0" width="418" height="432">
<path d="M0.171875 0H417.896V431.719H0.171875V0Z" fill="white"/>
</mask>
<g mask="url(#mask1_2077_1168)">
<path d="M14.0938 222.818V264.578H0.171875V222.818H14.0938ZM28.0208 194.979H14.0938V222.818H28.0208V194.979ZM41.9427 167.141H28.0208V194.979H41.9427V167.141ZM55.8698 139.302H41.9427V167.141H55.8698V139.302ZM69.7917 111.464H55.8698V139.302H69.7917V111.464ZM83.7188 83.625H69.7917V111.464H83.7188V83.625ZM111.563 27.9479H97.6406V55.7865H111.563V27.9479ZM97.6406 55.7865H83.7188V83.625H97.6406V55.7865ZM264.729 264.578H278.656V236.74H264.729V264.578ZM278.656 236.74H292.578V208.901H278.656V236.74ZM292.578 208.901H306.505V181.063H292.578V208.901ZM306.505 181.063H320.427V153.224H306.505V181.063ZM320.427 153.224H334.349V125.385H320.427V153.224ZM348.276 97.5469H362.198V69.7031H348.276V97.5469ZM362.198 69.7031H376.125V41.8646H362.198V69.7031ZM403.974 41.8646V403.771H417.896V41.8646H403.974ZM125.49 41.8646H139.411V27.9479H125.49V41.8646ZM125.49 14.026H111.563V27.9479H125.49V14.026ZM139.411 27.9479H167.26V14.026H153.339V0.109375H125.49V14.026H139.411V27.9479ZM181.188 27.9479H209.036V14.026H195.109V0.109375H167.26V14.026H181.188V27.9479ZM222.958 27.9479H250.807V14.026H236.88V0.109375H209.036V14.026H222.958V27.9479ZM264.729 27.9479H292.578V14.026H278.656V0.109375H250.807V14.026H264.729V27.9479ZM306.505 27.9479H334.349V14.026H320.427V0.109375H292.578V14.026H306.505V27.9479ZM348.276 27.9479H376.125V41.8646H403.974V27.9479H390.047V14.026H362.198V0.109375H334.349V14.026H348.276V27.9479ZM167.26 41.8646H181.188V27.9479H167.26V41.8646ZM209.036 41.8646H222.958V27.9479H209.036V41.8646ZM250.807 41.8646H264.729V27.9479H250.807V41.8646ZM292.578 41.8646H306.505V27.9479H292.578V41.8646ZM334.349 41.8646H348.276V27.9479H334.349V41.8646ZM334.349 125.385H348.276V97.5469H334.349V125.385ZM125.49 389.854V403.771H139.411V389.854H125.49ZM139.411 403.771V417.693H153.339V403.771H139.411ZM390.047 417.693H403.974V403.771H390.047V417.693ZM153.339 431.609H390.047V417.693H153.339V431.609ZM139.411 375.932V362.016H125.49V278.495H264.729V264.578H14.0938V278.495H111.563V389.854H125.49V375.932H139.411ZM153.339 389.854V375.932H139.411V389.854H153.339Z" fill="black"/>
</g>
<path d="M390.047 27.9482V389.855H376.125V403.771H153.338V389.855H362.198V375.933H376.125V27.9482H390.047ZM153.338 320.256H195.109V334.177H236.88V348.094H292.578V306.339H306.505V264.578H320.427V222.818H334.349V125.386L264.729 264.578L139.411 278.495H125.489V306.339H153.338V320.256Z" fill="black"/>
</svg>
