<svg width="158" height="159" viewBox="0 0 158 159" fill="none" xmlns="http://www.w3.org/2000/svg">
<path d="M116.25 50.1146H124.521V41.8125H116.25V50.1146Z" fill="#040606"/>
<path d="M108.005 33.5365V41.8125H116.25V33.5365H108.005Z" fill="#040606"/>
<path d="M99.4271 25.2292H74.6406V33.5365H108.005V25.2292H99.4271Z" fill="#040606"/>
<path d="M66.3955 41.8125H74.6403V33.5365H66.3955V41.8125Z" fill="#040606"/>
<path d="M58.125 50.1146H66.3958V41.8125H58.125V50.1146Z" fill="#040606"/>
<mask id="mask0_2078_3029" style="mask-type:luminance" maskUnits="userSpaceOnUse" x="0" y="0" width="158" height="159">
<path d="M0 0H157.594V158.589H0V0Z" fill="white"/>
</mask>
<g mask="url(#mask0_2078_3029)">
<path d="M141.042 50.1145V91.8802H132.797V100.182H124.521V108.458H116.25V116.76H66.3962V108.458H58.1253V100.182H49.8493V91.8802H41.6045V41.8125H49.8493V33.5364H58.1253V25.2291H66.3962V16.9531H116.25V25.2291H124.521V33.5364H132.797V41.8125H141.042V50.1145ZM149.313 50.1145V33.5364H141.042V25.2291H132.797V16.9531H124.521V8.34371H108.011V0.041626H74.6409V8.34371H58.1253V16.9531H49.8493V25.2291H41.6045V33.5364H33.0264V50.1145H24.7555V83.6041H33.0264V100.182H24.7555V108.458H16.5107V116.76H8.23991V125.062H-0.00488281V150.255H8.23991V158.531H33.0264V150.255H41.6045V141.641H49.8493V133.338H58.1253V125.062H74.6409V133.338H108.011V125.062H124.521V116.76H132.797V108.458H141.042V100.182H149.313V83.6041H157.584V50.1145H149.313Z" fill="#040606"/>
</g>
</svg>
