<svg width="432" height="433" viewBox="0 0 432 433" fill="none" xmlns="http://www.w3.org/2000/svg">
<mask id="mask0_2077_2328" style="mask-type:luminance" maskUnits="userSpaceOnUse" x="0" y="0" width="433" height="433">
<path d="M0.164062 0.759766H432.003V432.286H0.164062V0.759766Z" fill="white"/>
</mask>
<g mask="url(#mask0_2077_2328)">
<path d="M407.873 264.458V216.573H384.003V168.505H360.044V144.521H336.149V120.625H312.19V96.708H288.315V72.7236H264.435V48.8226H216.435V24.8382H168.586V0.770508H1.02881V48.8226H144.716V72.7236H216.435V96.708H240.466V120.625H264.435V144.521H288.315V168.505H312.19V192.427H336.149V216.573H360.044V288.375H384.003V432.13H431.992V264.458H407.873Z" fill="#040606"/>
</g>
<mask id="mask1_2077_2328" style="mask-type:luminance" maskUnits="userSpaceOnUse" x="0" y="120" width="314" height="313">
<path d="M0.164062 120.369H313.419V432.286H0.164062V120.369Z" fill="white"/>
</mask>
<g mask="url(#mask1_2077_2328)">
<path d="M288.315 288.374V264.457H264.43V216.577H240.466V192.426H216.43V168.504H168.586V144.525H120.758V120.624H1.02881V168.504H96.8621V192.426H168.586V216.577H192.482V240.457H216.43V264.457H240.466V336.259H264.43V432.129H312.19V312.259H288.315V288.374Z" fill="#040606"/>
</g>
<mask id="mask2_2077_2328" style="mask-type:luminance" maskUnits="userSpaceOnUse" x="0" y="216" width="217" height="217">
<path d="M0.164062 216.369H216.086V432.286H0.164062V216.369Z" fill="white"/>
</mask>
<g mask="url(#mask2_2077_2328)">
<path d="M192.086 312.733V288.749H168.195V264.853H144.237V240.931H96.4715V216.952H0.638184V264.853H72.5132V288.749H120.362V312.733H144.237V360.551H168.195V432.588H215.961V336.634H192.086V312.733Z" fill="#040606"/>
</g>
<mask id="mask3_2077_2328" style="mask-type:luminance" maskUnits="userSpaceOnUse" x="0" y="320" width="97" height="98">
<path d="M0.164062 320.369H96.0859V417.702H0.164062V320.369Z" fill="white"/>
</mask>
<g mask="url(#mask3_2077_2328)">
<path d="M71.9715 321.358H24.1278V345.499H0.169434V393.395H24.1278V417.296H71.9715V393.395H96.008V345.499H71.9715V321.358Z" fill="#040606"/>
</g>
</svg>
