<svg width="365" height="365" viewBox="0 0 365 365" fill="none" xmlns="http://www.w3.org/2000/svg">
<path fill-rule="evenodd" clip-rule="evenodd" d="M35.0592 117.514C15.6966 117.514 0 133.21 0 152.573V315C0 342.614 22.3858 365 50 365H266.333C293.948 365 316.333 342.614 316.333 315V275.187C316.333 261.748 327.228 250.853 340.667 250.853V250.853C354.106 250.853 365 239.959 365 226.52V50C365 22.3857 342.614 0 315 0H120.118C92.5042 0 70.1185 22.3858 70.1185 50V82.4544C70.1185 101.817 54.4219 117.514 35.0592 117.514V117.514Z" fill="#D9D9D9"/>
</svg>
