<svg width="392" height="432" viewBox="0 0 392 432" fill="none" xmlns="http://www.w3.org/2000/svg">
<mask id="mask0_2077_1137" style="mask-type:luminance" maskUnits="userSpaceOnUse" x="0" y="13" width="379" height="419">
<path d="M0.385254 13.1665H378.198V431.76H0.385254V13.1665Z" fill="white"/>
</mask>
<g mask="url(#mask0_2077_1137)">
<path d="M364.239 81.0625V67.5833H350.765V54.1042H296.859V27.1406H283.385V13.6562H256.432V27.1406H242.953V54.1042H135.146V27.1406H121.672V13.6562H94.7186V27.1406H81.2446V54.1042H27.3384V67.5833H13.8644V81.0625H0.385254V404.62H13.8644V418.099H27.3384V431.583H350.765V418.099H364.239V404.62H377.713V81.0625H364.239Z" fill="black"/>
</g>
<mask id="mask1_2077_1137" style="mask-type:luminance" maskUnits="userSpaceOnUse" x="12" y="0" width="380" height="419">
<path d="M12.8643 0H391.172V418.5H12.8643V0Z" fill="white"/>
</mask>
<g mask="url(#mask1_2077_1137)">
<path d="M377.713 67.5835V54.1043H364.239V40.62H310.333V13.6564H296.859V0.177246H269.906V13.6564H256.432V40.62H148.625V13.6564H135.146V0.177246H108.192V13.6564H94.7184V40.62H40.8122V54.1043H27.3382V67.5835H13.8643V391.136H27.3382V404.62H40.8122V418.099H364.239V404.62H377.713V391.136H391.192V67.5835H377.713Z" fill="black"/>
</g>
<path d="M108.193 310.25H40.8125V323.729H54.2917V337.214H67.7656V350.693H81.2448V364.177H94.7188V377.656H108.193V391.135H121.672V323.729H108.193V310.25Z" fill="white"/>
<path d="M94.7186 391.136H108.193V404.62H40.8123V391.136H27.3384V323.729H40.8123V337.214H54.2915V350.693H67.7655V364.177H81.2446V377.657H94.7186V391.136Z" fill="white"/>
<path d="M108.193 310.25H40.8125V323.729H54.2917V337.214H67.7656V350.693H81.2448V364.177H94.7188V377.656H108.193V391.135H121.672V323.729H108.193V310.25Z" fill="black"/>
<path d="M364.239 161.953H27.3384V296.766H121.672V310.25H135.146V404.62H364.239V391.135H377.713V161.953H364.239Z" fill="white"/>
<path d="M364.239 161.953H27.3384V296.766H121.672V310.25H135.146V404.62H364.239V391.135H377.713V161.953H364.239Z" fill="white"/>
<path d="M121.672 13.6562H135.146V81.0625H108.192V13.6562H121.672ZM283.385 13.6562H269.906V81.0625H296.859V13.6562H283.385Z" fill="black"/>
<path d="M216.005 188.917H162.099V269.802H242.953V188.917H216.005ZM337.286 188.917H269.906V269.802H350.765V188.917H337.286ZM323.812 296.765H269.906V377.656H350.765V296.765H323.812ZM216.005 296.765H162.099V377.656H242.953V296.765H216.005ZM108.193 296.765V310.25H121.672V323.729H135.146V310.25H121.672V296.765H108.193ZM108.193 188.917H54.2915V269.802H135.146V188.917H108.193Z" fill="black"/>
<path d="M67.7655 242.844V256.323H54.2915V242.844H67.7655ZM54.2915 215.88V229.359H67.7655V215.88H54.2915ZM54.2915 188.917V202.396H67.7655V188.917H54.2915ZM67.7655 256.323V269.802H81.2446V256.323H67.7655ZM67.7655 229.359V242.844H81.2446V229.359H67.7655ZM67.7655 202.396V215.88H81.2446V202.396H67.7655ZM81.2446 242.844V256.323H94.7186V242.844H81.2446ZM81.2446 215.88V229.359H94.7186V215.88H81.2446ZM81.2446 188.917V202.396H94.7186V188.917H81.2446ZM94.7186 256.323V269.802H108.193V256.323H94.7186ZM94.7186 229.359V242.844H108.193V229.359H94.7186ZM94.7186 202.396V215.88H108.193V202.396H94.7186ZM108.193 296.765V310.25H121.672V296.765H108.193ZM108.193 242.844V256.323H121.672V242.844H108.193ZM108.193 215.88V229.359H121.672V215.88H108.193ZM108.193 188.917V202.396H121.672V188.917H108.193ZM121.672 310.25V323.729H135.146V310.25H121.672ZM121.672 256.323V269.802H135.146V256.323H121.672ZM121.672 229.359V242.844H135.146V229.359H121.672ZM121.672 202.396V215.88H135.146V202.396H121.672ZM162.099 350.693V364.177H175.573V350.693H162.099ZM162.099 323.729V337.213H175.573V323.729H162.099ZM162.099 296.765V310.25H175.573V296.765H162.099ZM162.099 256.323V269.802H175.573V256.323H162.099ZM162.099 229.359V242.844H175.573V229.359H162.099ZM162.099 202.396V215.88H175.573V202.396H162.099ZM175.573 364.177V377.656H189.052V364.177H175.573ZM175.573 337.213V350.693H189.052V337.213H175.573ZM175.573 310.25V323.729H189.052V310.25H175.573ZM175.573 242.844V256.323H189.052V242.844H175.573ZM175.573 215.88V229.359H189.052V215.88H175.573ZM175.573 188.917V202.396H189.052V188.917H175.573ZM189.052 350.693V364.177H202.526V350.693H189.052ZM189.052 323.729V337.213H202.526V323.729H189.052ZM189.052 296.765V310.25H202.526V296.765H189.052ZM189.052 256.323V269.802H202.526V256.323H189.052ZM189.052 229.359V242.844H202.526V229.359H189.052ZM189.052 202.396V215.88H202.526V202.396H189.052ZM202.526 364.177V377.656H216.005V364.177H202.526ZM202.526 337.213V350.693H216.005V337.213H202.526ZM202.526 310.25V323.729H216.005V310.25H202.526ZM202.526 242.844V256.323H216.005V242.844H202.526ZM202.526 215.88V229.359H216.005V215.88H202.526ZM202.526 188.917V202.396H216.005V188.917H202.526ZM216.005 350.693V364.177H229.479V350.693H216.005ZM216.005 323.729V337.213H229.479V323.729H216.005ZM216.005 296.765V310.25H229.479V296.765H216.005ZM216.005 256.323V269.802H229.479V256.323H216.005ZM216.005 229.359V242.844H229.479V229.359H216.005ZM216.005 202.396V215.88H229.479V202.396H216.005ZM229.479 364.177V377.656H242.953V364.177H229.479ZM229.479 337.213V350.693H242.953V337.213H229.479ZM229.479 310.25V323.729H242.953V310.25H229.479ZM229.479 242.844V256.323H242.953V242.844H229.479ZM229.479 215.88V229.359H242.953V215.88H229.479ZM229.479 188.917V202.396H242.953V188.917H229.479ZM269.906 350.693V364.177H283.385V350.693H269.906ZM269.906 323.729V337.213H283.385V323.729H269.906ZM269.906 296.765V310.25H283.385V296.765H269.906ZM269.906 256.323V269.802H283.385V256.323H269.906ZM269.906 229.359V242.844H283.385V229.359H269.906ZM269.906 202.396V215.88H283.385V202.396H269.906ZM283.385 364.177V377.656H296.859V364.177H283.385ZM283.385 337.213V350.693H296.859V337.213H283.385ZM283.385 310.25V323.729H296.859V310.25H283.385ZM283.385 242.844V256.323H296.859V242.844H283.385ZM283.385 215.88V229.359H296.859V215.88H283.385ZM283.385 188.917V202.396H296.859V188.917H283.385ZM296.859 350.693V364.177H310.333V350.693H296.859ZM296.859 323.729V337.213H310.333V323.729H296.859ZM296.859 296.765V310.25H310.333V296.765H296.859ZM296.859 256.323V269.802H310.333V256.323H296.859ZM296.859 229.359V242.844H310.333V229.359H296.859ZM296.859 202.396V215.88H310.333V202.396H296.859ZM310.333 364.177V377.656H323.812V364.177H310.333ZM310.333 337.213V350.693H323.812V337.213H310.333ZM310.333 310.25V323.729H323.812V310.25H310.333ZM310.333 242.844V256.323H323.812V242.844H310.333ZM310.333 215.88V229.359H323.812V215.88H310.333ZM310.333 188.917V202.396H323.812V188.917H310.333ZM323.812 350.693V364.177H337.286V350.693H323.812ZM323.812 323.729V337.213H337.286V323.729H323.812ZM323.812 296.765V310.25H337.286V296.765H323.812ZM323.812 256.323V269.802H337.286V256.323H323.812ZM323.812 229.359V242.844H337.286V229.359H323.812ZM323.812 202.396V215.88H337.286V202.396H323.812ZM337.286 364.177V377.656H350.765V364.177H337.286ZM337.286 337.213V350.693H350.765V337.213H337.286ZM337.286 310.25V323.729H350.765V310.25H337.286ZM337.286 242.844V256.323H350.765V242.844H337.286ZM337.286 215.88V229.359H350.765V215.88H337.286ZM337.286 188.917V202.396H350.765V188.917H337.286Z" fill="black"/>
<path d="M377.713 67.5832V148.474H27.3384V67.5832H40.8123V54.104H94.7186V81.0623H108.193V94.5467H135.146V81.0623H148.625V54.104H256.432V81.0623H269.906V94.5467H296.859V81.0623H310.333V54.104H364.239V67.5832H377.713Z" fill="black"/>
<mask id="mask2_2077_1137" style="mask-type:luminance" maskUnits="userSpaceOnUse" x="12" y="0" width="380" height="419">
<path d="M12.8643 0H391.172V418.5H12.8643V0Z" fill="white"/>
</mask>
<g mask="url(#mask2_2077_1137)">
<path d="M40.8122 391.136V404.62H27.3382V391.136H40.8122ZM40.8122 54.1043H27.3382V67.5835H40.8122V54.1043ZM54.2913 337.214V323.729H40.8122V337.214H54.2913ZM54.2913 337.214V350.693H67.7653V337.214H54.2913ZM67.7653 54.1043H94.7184V81.0627H108.192V13.6564H94.7184V40.62H40.8122V54.1043H67.7653ZM67.7653 350.693V364.177H81.2445V350.693H67.7653ZM81.2445 364.177V377.656H94.7184V364.177H81.2445ZM94.7184 377.656V391.136H108.192V377.656H94.7184ZM121.672 323.729V310.25H108.192V323.729H121.672ZM108.192 81.0627V94.547H135.146V81.0627H108.192ZM135.146 13.6564V0.177246H108.192V13.6564H135.146ZM135.146 40.62V81.0627H148.625V54.1043H256.432V81.0627H269.906V13.6564H256.432V40.62H148.625V13.6564H135.146V40.62ZM269.906 81.0627V94.547H296.859V81.0627H269.906ZM296.859 13.6564V0.177246H269.906V13.6564H296.859ZM296.859 40.62V81.0627H310.333V54.1043H364.239V40.62H310.333V13.6564H296.859V40.62ZM337.286 404.62H135.146V323.729H121.672V391.136H108.192V404.62H40.8122V418.099H364.239V404.62H337.286ZM364.239 404.62H377.713V391.136H364.239V404.62ZM377.713 67.5835V54.1043H364.239V67.5835H377.713ZM377.713 67.5835V148.474H27.3382V67.5835H13.8643V391.136H27.3382V323.729H40.8122V310.25H108.192V296.766H27.3382V161.953H377.713V391.136H391.192V67.5835H377.713Z" fill="black"/>
</g>
<path d="M40.8123 134.989V67.5832H27.3384V148.474H40.8123V134.989ZM256.432 108.026H283.385V94.5467H269.906V81.0623H256.432V54.104H242.953V94.5467H256.432V108.026ZM108.193 81.0623H94.7186V54.104H81.2446V94.5467H94.7186V108.026H121.672V94.5467H108.193V81.0623Z" fill="black"/>
<path d="M40.8123 283.286V161.953H27.3384V296.766H40.8123V283.286ZM350.765 391.135H135.146V404.62H364.239V391.135H350.765Z" fill="black"/>
<path d="M94.7186 391.136H108.193V404.62H94.7186V391.136ZM27.3384 323.729V337.214H40.8123V323.729H27.3384ZM40.8123 337.214V350.693H54.2915V337.214H40.8123ZM81.2446 377.657V391.136H94.7186V377.657H81.2446ZM67.7655 364.177V377.657H81.2446V364.177H67.7655ZM54.2915 350.693V364.177H67.7655V350.693H54.2915Z" fill="black"/>
<path d="M108.192 13.6562V27.1406H121.672V81.0625H135.146V13.6562H108.192ZM269.906 13.6562V27.1406H283.385V81.0625H296.859V13.6562H269.906Z" fill="white"/>
<path d="M67.7656 54.104H81.2448V67.5832H40.8125V54.104H67.7656ZM216.005 54.104H148.625V67.5832H242.953V54.104H216.005ZM364.24 67.5832V54.104H310.333V67.5832H350.766V81.0623H364.24V148.474H377.714V67.5832H364.24Z" fill="white"/>
<path d="M108.193 323.729H121.672V391.135H108.193V337.214H94.7188V310.25H108.193V323.729ZM364.24 175.432V391.135H377.714V161.953H364.24V175.432Z" fill="white"/>
</svg>
