<svg width="370" height="311" viewBox="0 0 370 311" fill="none" xmlns="http://www.w3.org/2000/svg">
<mask id="mask0_2077_1885" style="mask-type:luminance" maskUnits="userSpaceOnUse" x="0" y="0" width="370" height="311">
<path d="M0 0.759766H369.164V310.76H0V0.759766Z" fill="white"/>
</mask>
<g mask="url(#mask0_2077_1885)">
<path d="M369.052 263.052V298.82H190.532V310.737H119.12V298.82H0.101074V251.13H12.0069V239.201H23.9071V227.284H35.8072V143.826H47.7074V108.058H35.8072V24.6107H47.7074V12.6824H226.227V0.759766H261.933V12.6824H321.44V36.5277H333.345V84.2183H321.44V215.362H333.345V227.284H345.246V239.201H357.146V263.052H369.052Z" fill="white"/>
</g>
<path d="M190.532 286.892V298.82H119.12V274.97H131.02V263.053H250.033V286.892H190.532ZM47.7074 155.749V143.826H59.6132V108.058H47.7074V24.6109H226.227V12.6826H261.933V24.6109H309.539V36.5279H321.44V84.2185H309.539V191.517H47.7074V155.749ZM71.5134 143.826V167.671H83.4135V179.594H178.621V167.671H261.933V179.594H285.739V167.671H297.639V48.4506H285.739V36.5279H95.3193V48.4506H59.6132V96.1355H71.5134V143.826ZM35.8072 239.202V227.285H47.7074V215.362H59.6132V203.434H142.926V215.362H214.327V203.434H309.539V215.362H321.44V227.285H333.345V251.13H345.246V263.053H357.146V286.892H273.833V274.97H261.933V263.053H250.033V251.13H119.12V274.97H95.3193V286.892H12.0068V263.053H23.907V251.13H35.8072V239.202ZM95.3193 263.053V251.13H47.7074V263.053H95.3193ZM273.833 263.053H297.639V251.13H273.833V263.053ZM321.44 251.13H309.539V263.053H321.44V251.13ZM214.327 227.285V239.202H285.739V227.285H214.327ZM142.926 227.285H83.4135V239.202H190.532V227.285H142.926Z" fill="white"/>
<mask id="mask1_2077_1885" style="mask-type:luminance" maskUnits="userSpaceOnUse" x="0" y="0" width="370" height="311">
<path d="M0 0.759766H369.164V310.76H0V0.759766Z" fill="white"/>
</mask>
<g mask="url(#mask1_2077_1885)">
<path d="M369.052 263.052V298.82H190.532V286.892H250.033V263.052H261.933V274.969H273.833V286.892H357.146V263.052H369.052ZM333.345 251.13H345.246V263.052H357.146V239.201H345.246V227.284H333.345V251.13ZM321.44 60.3674V84.2183H333.345V36.5277H321.44V60.3674ZM333.345 227.284V215.362H321.44V227.284H333.345ZM273.833 24.6107H309.539V36.5277H321.44V12.6824H261.933V24.6107H273.833ZM238.133 251.13H119.12V274.969H131.02V263.052H250.033V251.13H238.133ZM250.033 12.6824H261.933V0.759766H226.227V12.6824H250.033ZM166.726 298.82H119.12V310.737H190.532V298.82H166.726ZM119.12 274.969H95.3194V286.892H12.0069V263.052H23.9071V251.13H35.8072V227.284H23.9071V239.201H12.0069V251.13H0.101074V298.82H119.12V274.969ZM71.5134 167.671H83.4136V179.594H178.621V167.671H261.933V179.594H285.739V167.671H297.639V48.4504H285.739V36.5277H95.3194V48.4504H190.532V60.3674H178.621V72.2956H154.826V84.2183H131.02V96.1353H107.22V108.058H83.4136V96.1353H71.5134V167.671ZM71.5134 72.2956V60.3674H95.3194V48.4504H59.6132V96.1353H71.5134V72.2956ZM71.5134 24.6107H226.227V12.6824H47.7074V24.6107H71.5134ZM59.6132 131.903V108.058H47.7074V143.826H59.6132V131.903ZM47.7074 215.362H59.6132V203.434H142.926V215.362H214.327V203.434H309.539V215.362H321.44V84.2183H309.539V191.516H47.7074V143.826H35.8072V227.284H47.7074V215.362ZM47.7074 84.2183V24.6107H35.8072V108.058H47.7074V84.2183Z" fill="black"/>
</g>
<path d="M309.539 251.13H321.439V263.052H309.539V251.13ZM297.639 263.052V251.13H273.833V263.052H297.639ZM226.227 239.201H285.739V227.284H214.326V239.201H226.227ZM119.119 227.284H83.4132V239.201H190.532V227.284H119.119ZM83.4132 251.13H47.707V263.052H95.319V251.13H83.4132ZM83.4132 108.058H107.219V96.1352H131.02V84.2181H154.826V72.2955H178.62V60.3672H190.532V48.4502H95.319V60.3672H71.513V96.1352H83.4132V108.058Z" fill="black"/>
<path d="M89.9118 121.81H113.741V107.199H137.565V92.5942H161.394V77.9828H185.212V63.3644H197.135V48.7598H101.829V63.3644H78V107.199H89.9118V121.81Z" fill="white"/>
</svg>
