<svg width="215" height="159" viewBox="0 0 215 159" fill="none" xmlns="http://www.w3.org/2000/svg">
<mask id="mask0_2078_2702" style="mask-type:luminance" maskUnits="userSpaceOnUse" x="0" y="0" width="215" height="159">
<path d="M0 0H214.448V158.589H0V0Z" fill="white"/>
</mask>
<g mask="url(#mask0_2078_2702)">
<path d="M203.172 135.922H191.901V124.62H169.344V135.922H180.615V147.24H33.8232V135.922H45.1826V124.62H56.4587V113.193H79.0107L79.0316 101.891H90.3076V90.5781H101.604V101.891H112.881V90.5781H124.157V101.891H135.516V113.193H146.787V124.62H169.344V113.193H158.068V101.891H146.787V90.5781H135.516V79.2708H146.787V67.9687H158.068V56.6614H169.344V45.3489H180.615V34.0416H191.901V22.651H203.172V135.922ZM22.5524 124.62V135.922H11.2764V22.651H22.5524V34.0416H33.8232V45.3489H45.1826V56.6614H56.4587V67.9687H67.7399V79.2708H79.0107V90.5781H67.7399V101.891H45.1826V113.193H33.8232V124.62H22.5524ZM33.8232 11.3489H180.615V22.651H169.344V34.0416H158.068V45.3489H146.787V56.6614H135.516V67.9687H124.157V79.2708H90.3284V67.9687H79.0107V56.6614H67.7399V45.3489H56.4587V34.0416H45.1826V22.651H33.8232V11.3489ZM203.172 11.3489V0.041626H11.2764V11.3489H-0.00488281V147.24H11.2764V158.547H203.172V147.24H214.453V11.3489H203.172Z" fill="#040606"/>
</g>
</svg>
