<svg width="433" height="331" viewBox="0 0 433 331" fill="none" xmlns="http://www.w3.org/2000/svg">
<mask id="mask0_2077_1185" style="mask-type:luminance" maskUnits="userSpaceOnUse" x="25" y="12" width="408" height="319">
<path d="M25.1924 12.3701H432.614V330.782H25.1924V12.3701Z" fill="white"/>
</mask>
<g mask="url(#mask0_2077_1185)">
<path d="M419.917 76.417V63.7087H407.219V51.0003H242.151V38.2868H229.453V25.5785H216.755V12.8701H115.177V25.5785H102.479V38.2868H89.7811V51.0003H77.0832V114.547H38.9894V127.261H26.2915V165.391H38.9894V203.521H51.6873V241.651H64.3853V279.782H77.0832V317.912H89.7811V330.62H419.917V317.912H432.614V76.417H419.917Z" fill="black"/>
</g>
<mask id="mask1_2077_1185" style="mask-type:luminance" maskUnits="userSpaceOnUse" x="0" y="0" width="408" height="320">
<path d="M0.895508 0H407.859V319.036H0.895508V0Z" fill="white"/>
</mask>
<g mask="url(#mask1_2077_1185)">
<path d="M394.521 63.7083V51H381.823V38.2865H216.755V25.5781H204.057V12.8698H191.359V0.15625H89.7809V12.8698H77.083V25.5781H64.3851V38.2865H51.6872V101.839H13.5934V114.547H0.895508V152.682H13.5934V190.813H26.2913V228.943H38.9893V267.073H51.6872V305.203H64.3851V317.911H394.521V305.203H407.218V63.7083H394.521Z" fill="white"/>
</g>
<path d="M26.2917 114.547V127.261H13.5938V114.547H26.2917ZM51.6875 114.547H38.9896V127.261H51.6875V114.547ZM77.0833 114.547H64.3854V127.261H77.0833V114.547ZM102.479 114.547H89.7813V127.261H102.479V114.547ZM127.875 114.547H115.177V127.261H127.875V114.547ZM153.266 114.547H140.568V127.261H153.266V114.547ZM178.661 114.547H165.964V127.261H178.661V114.547ZM204.057 114.547H191.359V127.261H204.057V114.547ZM229.453 114.547H216.755V127.261H229.453V114.547ZM254.849 114.547H242.151V127.261H254.849V114.547ZM280.245 114.547H267.547V127.261H280.245V114.547ZM305.635 114.547H292.938V127.261H305.635V114.547ZM64.3854 101.839H77.0833V89.1305H64.3854V101.839ZM89.7813 101.839H102.479V89.1305H89.7813V101.839ZM115.177 101.839H127.875V89.1305H115.177V101.839ZM140.568 101.839H153.266V89.1305H140.568V101.839ZM165.964 101.839H178.661V89.1305H165.964V101.839ZM191.359 101.839H204.057V89.1305H191.359V101.839ZM216.755 101.839H229.453V89.1305H216.755V101.839ZM242.151 101.839H254.849V89.1305H242.151V101.839ZM267.547 101.839H280.245V89.1305H267.547V101.839ZM292.938 101.839H305.635V89.1305H292.938V101.839ZM318.333 89.1305V101.839H331.031V89.1305H318.333ZM343.729 89.1305V101.839H356.427V89.1305H343.729ZM369.125 89.1305V101.839H381.823V89.1305H369.125ZM77.0833 76.417V89.1305H89.7813V76.417H77.0833ZM102.479 76.417V89.1305H115.177V76.417H102.479ZM127.875 76.417V89.1305H140.568V76.417H127.875ZM153.266 76.417V89.1305H165.964V76.417H153.266ZM178.661 76.417V89.1305H191.359V76.417H178.661ZM204.057 76.417V89.1305H216.755V76.417H204.057ZM229.453 76.417V89.1305H242.151V76.417H229.453ZM254.849 76.417V89.1305H267.547V76.417H254.849ZM280.245 76.417V89.1305H292.938V76.417H280.245ZM305.635 76.417V89.1305H318.333V76.417H305.635ZM331.031 76.417V89.1305H343.729V76.417H331.031ZM356.427 76.417V89.1305H369.125V76.417H356.427ZM381.823 76.417V63.7087H369.125V76.417H381.823ZM394.521 89.1305V76.417H381.823V89.1305H394.521ZM331.031 101.839V114.547H343.729V101.839H331.031ZM356.427 114.547H369.125V101.839H356.427V114.547ZM356.427 114.547H343.729V127.261H356.427V114.547ZM369.125 127.261H381.823V114.547H369.125V127.261ZM331.031 127.261V139.969H343.729V127.261H331.031ZM356.427 139.969H369.125V127.261H356.427V139.969ZM343.729 139.969V152.683H356.427V139.969H343.729ZM369.125 152.683H381.823V139.969H369.125V152.683ZM343.729 165.391V178.099H356.427V165.391H343.729ZM369.125 152.683H356.427V165.391H369.125V152.683ZM369.125 178.099H381.823V165.391H369.125V178.099ZM394.521 165.391V152.683H381.823V165.391H394.521ZM394.521 139.969V127.261H381.823V139.969H394.521ZM394.521 114.547V101.839H381.823V114.547H394.521ZM356.427 178.099V190.813H369.125V178.099H356.427ZM369.125 203.521H381.823V190.813H369.125V203.521ZM369.125 228.943H381.823V216.229H369.125V228.943ZM394.521 190.813V178.099H381.823V190.813H394.521ZM356.427 203.521V216.229H369.125V203.521H356.427ZM394.521 216.229V203.521H381.823V216.229H394.521ZM369.125 254.36H381.823V241.651H369.125V254.36ZM394.521 267.073V254.36H381.823V267.073H394.521ZM381.823 292.49H394.521V279.782H381.823V292.49ZM394.521 241.651V228.943H381.823V241.651H394.521ZM64.3854 63.7087V76.417H77.0833V63.7087H64.3854ZM89.7813 63.7087V76.417H102.479V63.7087H89.7813ZM115.177 63.7087V76.417H127.875V63.7087H115.177ZM140.568 63.7087V76.417H153.266V63.7087H140.568ZM165.964 63.7087V76.417H178.661V63.7087H165.964ZM191.359 63.7087V76.417H204.057V63.7087H191.359ZM229.453 76.417V63.7087H216.755V76.417H229.453ZM254.849 76.417V63.7087H242.151V76.417H254.849ZM280.245 76.417V63.7087H267.547V76.417H280.245ZM305.635 76.417V63.7087H292.938V76.417H305.635ZM331.031 76.417V63.7087H318.333V76.417H331.031ZM356.427 76.417V63.7087H343.729V76.417H356.427ZM89.7813 51.0003H77.0833V63.7087H89.7813V51.0003ZM89.7813 25.5785H77.0833V38.2868H89.7813V25.5785ZM102.479 51.0003V63.7087H115.177V51.0003H102.479ZM127.875 51.0003V63.7087H140.568V51.0003H127.875ZM153.266 51.0003V63.7087H165.964V51.0003H153.266ZM191.359 63.7087V51.0003H178.661V63.7087H191.359ZM102.479 38.2868H89.7813V51.0003H102.479V38.2868ZM64.3854 38.2868V51.0003H77.0833V38.2868H64.3854ZM127.875 51.0003V38.2868H115.177V51.0003H127.875ZM153.266 51.0003V38.2868H140.568V51.0003H153.266ZM178.661 51.0003V38.2868H165.964V51.0003H178.661ZM115.177 38.2868V25.5785H102.479V38.2868H115.177ZM140.568 38.2868V25.5785H127.875V38.2868H140.568ZM165.964 38.2868V25.5785H153.266V38.2868H165.964ZM102.479 12.8701H89.7813V25.5785H102.479V12.8701ZM127.875 12.8701H115.177V25.5785H127.875V12.8701ZM153.266 12.8701H140.568V25.5785H153.266V12.8701ZM191.359 38.2868V25.5785H178.661V38.2868H191.359ZM204.057 51.0003V38.2868H191.359V51.0003H204.057ZM178.661 12.8701H165.964V25.5785H178.661V12.8701ZM216.755 63.7087V51.0003H204.057V63.7087H216.755ZM242.151 51.0003H229.453V63.7087H242.151V51.0003ZM267.547 51.0003H254.849V63.7087H267.547V51.0003ZM292.938 51.0003H280.245V63.7087H292.938V51.0003ZM318.333 51.0003H305.635V63.7087H318.333V51.0003ZM343.729 51.0003H331.031V63.7087H343.729V51.0003ZM369.125 51.0003H356.427V63.7087H369.125V51.0003ZM318.333 139.969V127.261H305.635V139.969H318.333ZM292.938 139.969V127.261H280.245V139.969H292.938ZM267.547 139.969V127.261H254.849V139.969H267.547ZM242.151 139.969V127.261H229.453V139.969H242.151ZM216.755 139.969V127.261H204.057V139.969H216.755ZM191.359 139.969V127.261H178.661V139.969H191.359ZM165.964 139.969V127.261H153.266V139.969H165.964ZM140.568 139.969V127.261H127.875V139.969H140.568ZM115.177 139.969V127.261H102.479V139.969H115.177ZM89.7813 139.969V127.261H77.0833V139.969H89.7813ZM64.3854 139.969V127.261H51.6875V139.969H64.3854ZM38.9896 127.261H26.2917V139.969H38.9896V127.261ZM13.5938 139.969V152.683H26.2917V139.969H13.5938ZM38.9896 139.969V152.683H51.6875V139.969H38.9896ZM77.0833 152.683V139.969H64.3854V152.683H77.0833ZM102.479 152.683V139.969H89.7813V152.683H102.479ZM127.875 152.683V139.969H115.177V152.683H127.875ZM153.266 152.683V139.969H140.568V152.683H153.266ZM178.661 152.683V139.969H165.964V152.683H178.661ZM204.057 152.683V139.969H191.359V152.683H204.057ZM229.453 152.683V139.969H216.755V152.683H229.453ZM254.849 152.683V139.969H242.151V152.683H254.849ZM280.245 152.683V139.969H267.547V152.683H280.245ZM292.938 152.683H305.635V139.969H292.938V152.683ZM26.2917 152.683V165.391H38.9896V152.683H26.2917ZM64.3854 152.683H51.6875V165.391H64.3854V152.683ZM89.7813 165.391V152.683H77.0833V165.391H89.7813ZM115.177 165.391V152.683H102.479V165.391H115.177ZM140.568 165.391V152.683H127.875V165.391H140.568ZM165.964 165.391V152.683H153.266V165.391H165.964ZM191.359 165.391V152.683H178.661V165.391H191.359ZM216.755 165.391V152.683H204.057V165.391H216.755ZM242.151 165.391V152.683H229.453V165.391H242.151ZM267.547 165.391V152.683H254.849V165.391H267.547ZM280.245 165.391H292.938V152.683H280.245V165.391ZM318.333 165.391V152.683H305.635V165.391H318.333ZM51.6875 165.391H38.9896V178.099H51.6875V165.391ZM77.0833 165.391H64.3854V178.099H77.0833V165.391ZM102.479 178.099V165.391H89.7813V178.099H102.479ZM127.875 178.099V165.391H115.177V178.099H127.875ZM153.266 178.099V165.391H140.568V178.099H153.266ZM178.661 178.099V165.391H165.964V178.099H178.661ZM204.057 178.099V165.391H191.359V178.099H204.057ZM229.453 178.099V165.391H216.755V178.099H229.453ZM254.849 178.099V165.391H242.151V178.099H254.849ZM267.547 178.099H280.245V165.391H267.547V178.099ZM305.635 178.099V165.391H292.938V178.099H305.635ZM331.031 178.099V165.391H318.333V178.099H331.031ZM26.2917 178.099V190.813H38.9896V178.099H26.2917ZM64.3854 178.099H51.6875V190.813H64.3854V178.099ZM77.0833 178.099V190.813H89.7813V178.099H77.0833ZM102.479 178.099V190.813H115.177V178.099H102.479ZM140.568 190.813V178.099H127.875V190.813H140.568ZM165.964 190.813V178.099H153.266V190.813H165.964ZM191.359 190.813V178.099H178.661V190.813H191.359ZM216.755 190.813V178.099H204.057V190.813H216.755ZM242.151 190.813V178.099H229.453V190.813H242.151ZM254.849 190.813H267.547V178.099H254.849V190.813ZM292.938 190.813V178.099H280.245V190.813H292.938ZM305.635 190.813H318.333V178.099H305.635V190.813ZM51.6875 190.813H38.9896V203.521H51.6875V190.813ZM64.3854 190.813V203.521H77.0833V190.813H64.3854ZM89.7813 190.813V203.521H102.479V190.813H89.7813ZM127.875 190.813H115.177V203.521H127.875V190.813ZM153.266 203.521V190.813H140.568V203.521H153.266ZM178.661 203.521V190.813H165.964V203.521H178.661ZM204.057 203.521V190.813H191.359V203.521H204.057ZM229.453 203.521V190.813H216.755V203.521H229.453ZM242.151 203.521H254.849V190.813H242.151V203.521ZM280.245 203.521V190.813H267.547V203.521H280.245ZM292.938 203.521H305.635V190.813H292.938V203.521ZM331.031 203.521V190.813H318.333V203.521H331.031ZM26.2917 203.521V216.229H38.9896V203.521H26.2917ZM51.6875 203.521V216.229H64.3854V203.521H51.6875ZM77.0833 203.521V216.229H89.7813V203.521H77.0833ZM115.177 203.521H102.479V216.229H115.177V203.521ZM140.568 203.521H127.875V216.229H140.568V203.521ZM153.266 203.521V216.229H165.964V203.521H153.266ZM178.661 203.521V216.229H191.359V203.521H178.661ZM204.057 203.521V216.229H216.755V203.521H204.057ZM229.453 216.229H242.151V203.521H229.453V216.229ZM267.547 216.229V203.521H254.849V216.229H267.547ZM280.245 216.229H292.938V203.521H280.245V216.229ZM318.333 216.229V203.521H305.635V216.229H318.333ZM343.729 216.229V203.521H331.031V216.229H343.729ZM38.9896 216.229V228.943H51.6875V216.229H38.9896ZM64.3854 216.229V228.943H77.0833V216.229H64.3854ZM102.479 216.229H89.7813V228.943H102.479V216.229ZM127.875 216.229H115.177V228.943H127.875V216.229ZM140.568 216.229V228.943H153.266V216.229H140.568ZM165.964 216.229V228.943H178.661V216.229H165.964ZM191.359 216.229V228.943H204.057V216.229H191.359ZM216.755 216.229V228.943H229.453V216.229H216.755ZM242.151 216.229V228.943H254.849V216.229H242.151ZM267.547 228.943H280.245V216.229H267.547V228.943ZM305.635 228.943V216.229H292.938V228.943H305.635ZM318.333 228.943H331.031V216.229H318.333V228.943ZM51.6875 228.943V241.651H64.3854V228.943H51.6875ZM89.7813 228.943H77.0833V241.651H89.7813V228.943ZM115.177 228.943H102.479V241.651H115.177V228.943ZM127.875 228.943V241.651H140.568V228.943H127.875ZM153.266 228.943V241.651H165.964V228.943H153.266ZM178.661 228.943V241.651H191.359V228.943H178.661ZM204.057 228.943V241.651H216.755V228.943H204.057ZM229.453 228.943V241.651H242.151V228.943H229.453ZM254.849 228.943V241.651H267.547V228.943H254.849ZM292.938 241.651V228.943H280.245V241.651H292.938ZM305.635 241.651H318.333V228.943H305.635V241.651ZM343.729 241.651V228.943H331.031V241.651H343.729ZM77.0833 241.651H64.3854V254.36H77.0833V241.651ZM102.479 241.651H89.7813V254.36H102.479V241.651ZM115.177 241.651V254.36H127.875V241.651H115.177ZM140.568 241.651V254.36H153.266V241.651H140.568ZM165.964 241.651V254.36H178.661V241.651H165.964ZM191.359 241.651V254.36H204.057V241.651H191.359ZM216.755 241.651V254.36H229.453V241.651H216.755ZM242.151 241.651V254.36H254.849V241.651H242.151ZM267.547 241.651V254.36H280.245V241.651H267.547ZM292.938 254.36H305.635V241.651H292.938V254.36ZM331.031 254.36V241.651H318.333V254.36H331.031ZM356.427 254.36V241.651H343.729V254.36H356.427ZM51.6875 254.36V267.073H64.3854V254.36H51.6875ZM89.7813 254.36H77.0833V267.073H89.7813V254.36ZM102.479 254.36V267.073H115.177V254.36H102.479ZM127.875 254.36V267.073H140.568V254.36H127.875ZM153.266 254.36V267.073H165.964V254.36H153.266ZM178.661 254.36V267.073H191.359V254.36H178.661ZM204.057 254.36V267.073H216.755V254.36H204.057ZM229.453 254.36V267.073H242.151V254.36H229.453ZM254.849 254.36V267.073H267.547V254.36H254.849ZM280.245 254.36V267.073H292.938V254.36H280.245ZM305.635 254.36V267.073H318.333V254.36H305.635ZM331.031 267.073H343.729V254.36H331.031V267.073ZM77.0833 267.073H64.3854V279.782H77.0833V267.073ZM89.7813 267.073V279.782H102.479V267.073H89.7813ZM115.177 267.073V279.782H127.875V267.073H115.177ZM140.568 267.073V279.782H153.266V267.073H140.568ZM165.964 267.073V279.782H178.661V267.073H165.964ZM191.359 267.073V279.782H204.057V267.073H191.359ZM216.755 267.073V279.782H229.453V267.073H216.755ZM242.151 267.073V279.782H254.849V267.073H242.151ZM267.547 267.073V279.782H280.245V267.073H267.547ZM292.938 267.073V279.782H305.635V267.073H292.938ZM318.333 267.073V279.782H331.031V267.073H318.333ZM356.427 279.782V267.073H343.729V279.782H356.427ZM51.6875 279.782V292.49H64.3854V279.782H51.6875ZM77.0833 279.782V292.49H89.7813V279.782H77.0833ZM102.479 279.782V292.49H115.177V279.782H102.479ZM127.875 279.782V292.49H140.568V279.782H127.875ZM153.266 279.782V292.49H165.964V279.782H153.266ZM178.661 279.782V292.49H191.359V279.782H178.661ZM204.057 279.782V292.49H216.755V279.782H204.057ZM229.453 279.782V292.49H242.151V279.782H229.453ZM254.849 279.782V292.49H267.547V279.782H254.849ZM280.245 279.782V292.49H292.938V279.782H280.245ZM305.635 279.782V292.49H318.333V279.782H305.635ZM331.031 279.782V292.49H343.729V279.782H331.031ZM356.427 292.49H369.125V279.782H356.427V292.49ZM64.3854 305.203H77.0833V292.49H64.3854V305.203ZM89.7813 305.203H102.479V292.49H89.7813V305.203ZM115.177 305.203H127.875V292.49H115.177V305.203ZM140.568 305.203H153.266V292.49H140.568V305.203ZM165.964 305.203H178.661V292.49H165.964V305.203ZM191.359 305.203H204.057V292.49H191.359V305.203ZM216.755 305.203H229.453V292.49H216.755V305.203ZM242.151 305.203H254.849V292.49H242.151V305.203ZM267.547 305.203H280.245V292.49H267.547V305.203ZM292.938 305.203H305.635V292.49H292.938V305.203ZM318.333 305.203H331.031V292.49H318.333V305.203ZM343.729 305.203H356.427V292.49H343.729V305.203Z" fill="white"/>
<mask id="mask2_2077_1185" style="mask-type:luminance" maskUnits="userSpaceOnUse" x="0" y="0" width="408" height="320">
<path d="M0.895508 0H407.859V319.036H0.895508V0Z" fill="white"/>
</mask>
<g mask="url(#mask2_2077_1185)">
<path d="M102.479 12.8698H89.7809V0.15625H191.359V12.8698H102.479ZM89.7809 12.8698H77.083V25.5781H89.7809V12.8698ZM204.057 25.5781V12.8698H191.359V25.5781H204.057ZM77.083 25.5781H64.3851V38.2865H77.083V25.5781ZM216.755 38.2865V25.5781H204.057V38.2865H216.755ZM229.453 51H381.823V38.2865H216.755V51H229.453ZM394.521 63.7083V51H381.823V63.7083H394.521ZM394.521 63.7083V292.49H381.823V267.073H369.125V305.203H64.3851V317.911H394.521V305.203H407.218V63.7083H394.521ZM38.9893 114.547H318.333V101.839H64.3851V38.2865H51.6872V101.839H13.5934V114.547H38.9893ZM13.5934 127.26V114.547H0.895508V152.682H13.5934V127.26ZM331.031 127.26V114.547H318.333V152.682H331.031V127.26ZM26.2913 165.391V152.682H13.5934V190.813H26.2913V165.391ZM343.729 165.391V152.682H331.031V190.813H343.729V165.391ZM38.9893 203.521V190.813H26.2913V228.943H38.9893V203.521ZM356.427 203.521V190.813H343.729V228.943H356.427V203.521ZM51.6872 241.651V228.943H38.9893V267.073H51.6872V241.651ZM369.125 241.651V228.943H356.427V267.073H369.125V241.651ZM64.3851 279.781V267.073H51.6872V305.203H64.3851V279.781Z" fill="black"/>
</g>
<path d="M331.031 101.839V114.547H318.333V101.839H331.031ZM343.729 127.261V114.547H331.031V152.682H343.729V127.261ZM356.427 165.391V152.682H343.729V190.813H356.427V165.391ZM369.125 203.521V190.813H356.427V228.943H369.125V203.521ZM381.823 241.651V228.943H369.125V267.073H381.823V241.651ZM381.823 267.073V292.49H394.521V267.073H381.823ZM64.3854 89.1304V101.839H318.333V89.1304H64.3854ZM13.5938 114.547V152.682H26.2917V114.547H13.5938ZM26.2917 152.682V190.813H38.9896V152.682H26.2917ZM38.9896 190.813V228.943H51.6875V190.813H38.9896ZM51.6875 228.943V267.073H64.3854V228.943H51.6875ZM77.0833 267.073H64.3854V305.203H356.427V292.49H77.0833V267.073Z" fill="black"/>
<path d="M318.333 127.261V152.683H305.635V127.261H26.2915V114.547H318.333V127.261ZM216.755 51.0003V63.7087H381.823V51.0003H216.755ZM318.333 152.683V190.813H331.031V152.683H318.333ZM331.031 190.813V228.943H343.729V190.813H331.031ZM343.729 228.943V267.073H356.427V228.943H343.729ZM356.427 305.203H369.125V267.073H356.427V305.203ZM381.823 63.7087V292.49H394.521V63.7087H381.823ZM89.7811 12.8701V25.5785H191.359V12.8701H89.7811ZM191.359 25.5785V38.2868H204.057V25.5785H191.359ZM77.0832 38.2868H89.7811V25.5785H77.0832V38.2868ZM204.057 38.2868V51.0003H216.755V38.2868H204.057ZM64.3853 89.1305H77.0832V38.2868H64.3853V89.1305Z" fill="white"/>
</svg>
