<svg width="224" height="145" viewBox="0 0 224 145" fill="none" xmlns="http://www.w3.org/2000/svg">
<mask id="mask0_2078_3030" style="mask-type:luminance" maskUnits="userSpaceOnUse" x="26" y="0" width="123" height="131">
<path d="M26.0264 0H148.693V130.385H26.0264V0Z" fill="white"/>
</mask>
<g mask="url(#mask0_2078_3030)">
<path fill-rule="evenodd" clip-rule="evenodd" d="M95.0579 7.625V0H87.4486V22.8542H79.834V45.7292H72.2246V53.3542H64.61V60.9792H26.5684V68.5781H49.4069V76.2031H72.2246V83.8281H79.834V99.0781H87.4486V129.557H95.0579V91.4531H102.673V76.2031H110.287V68.5781H148.324V60.9792H117.876V53.3542H102.673V45.7292H95.0579V7.625Z" fill="#1E1E1E"/>
</g>
<mask id="mask1_2078_3030" style="mask-type:luminance" maskUnits="userSpaceOnUse" x="0" y="94" width="48" height="51">
<path d="M0 94.3854H47.3594V144.385H0V94.3854Z" fill="white"/>
</mask>
<g mask="url(#mask1_2078_3030)">
<path fill-rule="evenodd" clip-rule="evenodd" d="M26.2552 98.026V95.1198H23.3542V103.865H20.4531V112.583H17.526V115.516H14.625V118.422H0.09375V121.328H8.82292V124.234H17.526V127.161H20.4531V132.979H23.3542V144.625H26.2552V130.068H29.1562V124.234H32.0833V121.328H46.6146V118.422H34.9844V115.516H29.1562V112.583H26.2552V98.026Z" fill="#1E1E1E"/>
</g>
<path fill-rule="evenodd" clip-rule="evenodd" d="M219.359 49.8437H223.333V45.8593H211.411V41.8802H199.49V37.901H195.516V33.9427H191.542V14.0416H187.568V25.9843H183.599V37.901H179.625V41.8802H171.677V45.8593H155.781V49.8437H175.651V53.8229H183.599V57.802H187.568V77.7031H191.542V61.7812H195.516V53.8229H199.49V49.8437H219.359Z" fill="#1E1E1E"/>
</svg>
