<svg width="224" height="51" viewBox="0 0 224 51" fill="none" xmlns="http://www.w3.org/2000/svg">
<mask id="mask0_2078_3031" style="mask-type:luminance" maskUnits="userSpaceOnUse" x="0" y="0" width="224" height="51">
<path d="M0 0H223.422V50.8229H0V0Z" fill="white"/>
</mask>
<g mask="url(#mask0_2078_3031)">
<path d="M0 0V20.3281H10.151V30.4948H20.3073V40.6615H30.4635V50.8229H81.2448V40.6615H91.3958V30.4948H101.552V20.3281H121.865V30.4948H132.021V40.6615H142.177V50.8229H192.953V40.6615H203.109V30.4948H213.266V20.3281H223.422V0H0Z" fill="black"/>
</g>
<path d="M40.6191 30.4948H30.4629V20.3281H40.6191V30.4948Z" fill="white"/>
<path d="M50.7754 40.6614H40.6191V30.4948H50.7754V40.6614Z" fill="white"/>
<path d="M30.4629 20.3282H20.3066V10.1615H30.4629V20.3282Z" fill="white"/>
<path d="M60.9316 30.4948H50.7754V20.3281H60.9316V30.4948Z" fill="white"/>
<path d="M71.0879 40.6614H60.9316V30.4948H71.0879V40.6614Z" fill="white"/>
<path d="M50.7754 20.3282H40.6191V10.1615H50.7754V20.3282Z" fill="white"/>
<path d="M152.333 30.4948H142.177V20.3281H152.333V30.4948Z" fill="white"/>
<path d="M162.484 40.6614H152.333V30.4948H162.484V40.6614Z" fill="white"/>
<path d="M142.177 20.3282H132.021V10.1615H142.177V20.3282Z" fill="white"/>
<path d="M172.641 30.4948H162.484V20.3281H172.641V30.4948Z" fill="white"/>
<path d="M182.797 40.6614H172.641V30.4948H182.797V40.6614Z" fill="white"/>
<path d="M162.484 20.3282H152.333V10.1615H162.484V20.3282Z" fill="white"/>
</svg>
